<?xml version="1.0" encoding="utf-8"?>
<!-- Generator: Adobe Illustrator 16.0.0, SVG Export Plug-In . SVG Version: 6.00 Build 0)  -->
<!DOCTYPE svg PUBLIC "-//W3C//DTD SVG 1.1//EN" "http://www.w3.org/Graphics/SVG/1.1/DTD/svg11.dtd">
<svg version="1.1" id="Layer_1" opacity="0.02" xmlns="http://www.w3.org/2000/svg" xmlns:xlink="http://www.w3.org/1999/xlink"
	 x="0px" y="0px" width="600px" height="600px" viewBox="0 0 600 600" enable-background="new 0 0 600 600" xml:space="preserve">
<g>
	<path d="M85.927,273.233c8.122-1.326,20.223-2.32,33.649-2.32c16.575,0,28.178,2.486,36.135,8.785
		c6.63,5.304,10.276,13.094,10.276,23.372c0,14.255-10.111,24.034-19.725,27.516v0.497c7.79,3.149,12.1,10.608,14.918,20.885
		c3.48,12.598,6.962,27.185,9.116,31.494H144.44c-1.823-3.149-4.476-12.266-7.791-26.023c-2.983-13.924-7.79-17.736-18.067-17.902
		h-7.625v43.926H85.927V273.233z M110.957,321.303h9.945c12.598,0,20.057-6.299,20.057-16.079c0-10.276-6.962-15.415-18.564-15.581
		c-6.133,0-9.614,0.498-11.438,0.829V321.303z"/>
	<path d="M202.781,350.973c0.828,10.442,11.105,15.415,22.874,15.415c8.619,0,15.581-1.16,22.377-3.314l3.315,17.072
		c-8.288,3.315-18.399,4.973-29.339,4.973c-27.516,0-43.263-15.912-43.263-41.273c0-20.554,12.764-43.262,40.942-43.262
		c26.189,0,36.135,20.388,36.135,40.444c0,4.31-0.497,8.122-0.829,9.945H202.781z M232.451,333.734
		c0-6.133-2.652-16.41-14.255-16.41c-10.608,0-14.918,9.614-15.581,16.41H232.451z"/>
	<path d="M270.903,328.264c0-10.11-0.332-18.73-0.663-25.857h21.88l1.16,11.105h0.497c3.315-5.139,11.604-12.929,25.03-12.929
		c16.574,0,29.008,10.939,29.008,34.809v48.069h-25.195v-44.92c0-10.442-3.646-17.57-12.764-17.57
		c-6.961,0-11.106,4.807-12.763,9.448c-0.663,1.492-0.995,3.979-0.995,6.299v46.743h-25.194V328.264z"/>
	<path d="M414.111,383.461l-1.492-8.122h-0.496c-5.305,6.465-13.592,9.945-23.207,9.945c-16.408,0-26.189-11.935-26.189-24.863
		c0-21.051,18.896-31.162,47.572-30.996v-1.161c0-4.31-2.32-10.442-14.752-10.442c-8.287,0-17.072,2.818-22.377,6.133l-4.641-16.244
		c5.635-3.149,16.74-7.127,31.494-7.127c27.018,0,35.637,15.912,35.637,34.975v28.179c0,7.79,0.332,15.249,1.16,19.725H414.111z
		 M411.129,345.171c-13.262-0.165-23.539,2.984-23.539,12.764c0,6.465,4.311,9.614,9.947,9.614c6.297,0,11.436-4.145,13.094-9.283
		c0.332-1.326,0.498-2.817,0.498-4.31V345.171z"/>
	<path d="M481.572,279.863c0,6.962-5.305,12.598-13.592,12.598c-7.957,0-13.262-5.636-13.096-12.598
		c-0.166-7.293,5.139-12.763,13.262-12.763C476.268,267.1,481.406,272.57,481.572,279.863z M455.549,383.461v-81.055h25.193v81.055
		H455.549z"/>
	<path d="M500.795,361.415c4.643,2.818,14.256,6.134,21.715,6.134c7.625,0,10.773-2.652,10.773-6.797
		c0-4.144-2.486-6.133-11.934-9.282c-16.742-5.636-23.207-14.752-23.041-24.366c0-15.084,12.93-26.521,32.986-26.521
		c9.447,0,17.902,2.154,22.875,4.641l-4.477,17.404c-3.646-1.988-10.607-4.641-17.57-4.641c-6.133,0-9.613,2.486-9.613,6.63
		c0,3.813,3.148,5.802,13.094,9.282c15.416,5.305,21.881,13.095,22.047,25.029c0,15.084-11.936,26.189-35.141,26.189
		c-10.609,0-20.057-2.32-26.189-5.636L500.795,361.415z"/>
	<path d="M572.729,361.415c4.643,2.818,14.256,6.134,21.715,6.134c7.625,0,10.773-2.652,10.773-6.797
		c0-4.144-2.486-6.133-11.934-9.282c-16.742-5.636-23.207-14.752-23.041-24.366c0-15.084,12.93-26.521,32.986-26.521
		c9.447,0,17.902,2.154,22.875,4.641l-4.477,17.404c-3.646-1.988-10.607-4.641-17.57-4.641c-6.133,0-9.613,2.486-9.613,6.63
		c0,3.813,3.148,5.802,13.094,9.282c15.416,5.305,21.881,13.095,22.047,25.029c0,15.084-11.936,26.189-35.141,26.189
		c-10.609,0-20.057-2.32-26.189-5.636L572.729,361.415z"/>
	<path d="M690.91,383.461l-1.492-8.122h-0.498c-5.303,6.465-13.592,9.945-23.205,9.945c-16.41,0-26.189-11.935-26.189-24.863
		c0-21.051,18.896-31.162,47.572-30.996v-1.161c0-4.31-2.32-10.442-14.752-10.442c-8.289,0-17.074,2.818-22.377,6.133l-4.643-16.244
		c5.637-3.149,16.742-7.127,31.494-7.127c27.018,0,35.637,15.912,35.637,34.975v28.179c0,7.79,0.332,15.249,1.162,19.725H690.91z
		 M687.926,345.171c-13.26-0.165-23.537,2.984-23.537,12.764c0,6.465,4.311,9.614,9.945,9.614c6.299,0,11.438-4.145,13.096-9.283
		c0.33-1.326,0.496-2.817,0.496-4.31V345.171z"/>
	<path d="M732.346,328.264c0-10.11-0.332-18.73-0.664-25.857h21.881l1.16,11.105h0.496c3.316-5.139,11.604-12.929,25.029-12.929
		c16.576,0,29.008,10.939,29.008,34.809v48.069h-25.195v-44.92c0-10.442-3.646-17.57-12.764-17.57
		c-6.961,0-11.105,4.807-12.762,9.448c-0.664,1.492-0.996,3.979-0.996,6.299v46.743h-25.193V328.264z"/>
	<path d="M890.307,381.472c-4.477,1.989-12.93,3.646-22.543,3.646c-26.189,0-42.932-15.912-42.932-41.438
		c0-23.703,16.244-43.097,46.412-43.097c6.631,0,13.924,1.16,19.229,3.149l-3.979,18.73c-2.984-1.326-7.459-2.486-14.09-2.486
		c-13.26,0-21.879,9.448-21.713,22.708c0,14.918,9.945,22.709,22.211,22.709c5.967,0,10.607-0.994,14.42-2.486L890.307,381.472z"/>
	<path d="M921.799,350.973c0.828,10.442,11.105,15.415,22.873,15.415c8.619,0,15.582-1.16,22.377-3.314l3.316,17.072
		c-8.289,3.315-18.4,4.973-29.34,4.973c-27.516,0-43.262-15.912-43.262-41.273c0-20.554,12.764-43.262,40.941-43.262
		c26.189,0,36.135,20.388,36.135,40.444c0,4.31-0.496,8.122-0.828,9.945H921.799z M951.469,333.734
		c0-6.133-2.652-16.41-14.256-16.41c-10.607,0-14.918,9.614-15.58,16.41H951.469z"/>
</g>
<g>
	<path d="M-548.048,61.238c8.122-1.326,20.223-2.32,33.649-2.32c16.575,0,28.178,2.486,36.135,8.785
		c6.63,5.304,10.276,13.094,10.276,23.372c0,14.255-10.111,24.034-19.725,27.516v0.497c7.79,3.149,12.1,10.608,14.918,20.885
		c3.48,12.598,6.962,27.185,9.116,31.494h-25.857c-1.823-3.149-4.476-12.266-7.791-26.023c-2.983-13.924-7.79-17.736-18.067-17.902
		h-7.625v43.926h-25.029V61.238z M-523.019,109.308h9.945c12.598,0,20.057-6.299,20.057-16.079c0-10.276-6.962-15.415-18.564-15.581
		c-6.133,0-9.614,0.498-11.438,0.829V109.308z"/>
	<path d="M-431.195,138.978c0.828,10.442,11.105,15.415,22.874,15.415c8.619,0,15.581-1.16,22.377-3.314l3.315,17.072
		c-8.288,3.315-18.399,4.973-29.339,4.973c-27.516,0-43.263-15.912-43.263-41.273c0-20.554,12.764-43.262,40.942-43.262
		c26.189,0,36.135,20.388,36.135,40.444c0,4.31-0.497,8.122-0.829,9.945H-431.195z M-401.525,121.739
		c0-6.133-2.652-16.41-14.255-16.41c-10.608,0-14.918,9.614-15.581,16.41H-401.525z"/>
	<path d="M-363.073,116.269c0-10.11-0.332-18.73-0.663-25.857h21.88l1.16,11.105h0.497c3.315-5.139,11.604-12.929,25.029-12.929
		c16.575,0,29.008,10.939,29.008,34.809v48.069h-25.195v-44.92c0-10.442-3.646-17.57-12.764-17.57
		c-6.961,0-11.105,4.807-12.763,9.448c-0.663,1.492-0.995,3.979-0.995,6.299v46.743h-25.194V116.269z"/>
	<path d="M-219.864,171.466l-1.492-8.122h-0.497c-5.304,6.465-13.592,9.945-23.206,9.945c-16.409,0-26.189-11.935-26.189-24.863
		c0-21.051,18.896-31.162,47.572-30.996v-1.161c0-4.31-2.32-10.442-14.752-10.442c-8.288,0-17.073,2.818-22.377,6.133l-4.642-16.244
		c5.636-3.149,16.741-7.127,31.494-7.127c27.018,0,35.637,15.912,35.637,34.975v28.179c0,7.79,0.332,15.249,1.161,19.725H-219.864z
		 M-222.847,133.176c-13.261-0.165-23.538,2.984-23.538,12.764c0,6.465,4.311,9.614,9.946,9.614c6.298,0,11.437-4.145,13.095-9.283
		c0.331-1.326,0.497-2.817,0.497-4.31V133.176z"/>
	<path d="M-152.404,67.868c0,6.962-5.304,12.598-13.592,12.598c-7.956,0-13.261-5.636-13.095-12.598
		c-0.166-7.293,5.139-12.763,13.261-12.763S-152.57,60.575-152.404,67.868z M-178.427,171.466V90.411h25.194v81.055H-178.427z"/>
	<path d="M-133.18,149.42c4.642,2.818,14.255,6.134,21.714,6.134c7.625,0,10.774-2.652,10.774-6.797
		c0-4.144-2.486-6.133-11.935-9.282c-16.741-5.636-23.206-14.752-23.04-24.366c0-15.084,12.929-26.521,32.985-26.521
		c9.448,0,17.902,2.154,22.875,4.641l-4.476,17.404c-3.646-1.988-10.608-4.641-17.57-4.641c-6.133,0-9.614,2.486-9.614,6.63
		c0,3.813,3.149,5.802,13.095,9.282c15.416,5.305,21.88,13.095,22.046,25.029c0,15.084-11.935,26.189-35.141,26.189
		c-10.608,0-20.057-2.32-26.189-5.636L-133.18,149.42z"/>
	<path d="M-61.247,149.42c4.642,2.818,14.255,6.134,21.714,6.134c7.625,0,10.774-2.652,10.774-6.797
		c0-4.144-2.486-6.133-11.935-9.282c-16.741-5.636-23.206-14.752-23.04-24.366c0-15.084,12.929-26.521,32.985-26.521
		c9.448,0,17.902,2.154,22.875,4.641l-4.476,17.404c-3.646-1.988-10.608-4.641-17.57-4.641c-6.133,0-9.614,2.486-9.614,6.63
		c0,3.813,3.149,5.802,13.095,9.282c15.416,5.305,21.88,13.095,22.046,25.029c0,15.084-11.935,26.189-35.141,26.189
		c-10.608,0-20.057-2.32-26.189-5.636L-61.247,149.42z"/>
	<path d="M56.934,171.466l-1.492-8.122h-0.497c-5.304,6.465-13.592,9.945-23.206,9.945c-16.409,0-26.189-11.935-26.189-24.863
		c0-21.051,18.896-31.162,47.572-30.996v-1.161c0-4.31-2.32-10.442-14.752-10.442c-8.288,0-17.073,2.818-22.377,6.133l-4.642-16.244
		c5.636-3.149,16.741-7.127,31.494-7.127c27.018,0,35.637,15.912,35.637,34.975v28.179c0,7.79,0.332,15.249,1.161,19.725H56.934z
		 M53.951,133.176c-13.261-0.165-23.538,2.984-23.538,12.764c0,6.465,4.311,9.614,9.946,9.614c6.298,0,11.437-4.145,13.095-9.283
		c0.331-1.326,0.497-2.817,0.497-4.31V133.176z"/>
	<path d="M98.37,116.269c0-10.11-0.332-18.73-0.663-25.857h21.88l1.16,11.105h0.497c3.315-5.139,11.604-12.929,25.029-12.929
		c16.575,0,29.008,10.939,29.008,34.809v48.069h-25.195v-44.92c0-10.442-3.646-17.57-12.764-17.57
		c-6.961,0-11.105,4.807-12.763,9.448c-0.663,1.492-0.995,3.979-0.995,6.299v46.743H98.37V116.269z"/>
	<path d="M256.331,169.477c-4.476,1.989-12.929,3.646-22.543,3.646c-26.189,0-42.931-15.912-42.931-41.438
		c0-23.703,16.244-43.097,46.412-43.097c6.63,0,13.924,1.16,19.228,3.149l-3.979,18.73c-2.983-1.326-7.459-2.486-14.089-2.486
		c-13.261,0-21.88,9.448-21.714,22.708c0,14.918,9.945,22.709,22.211,22.709c5.968,0,10.608-0.994,14.421-2.486L256.331,169.477z"/>
	<path d="M287.823,138.978c0.828,10.442,11.105,15.415,22.875,15.415c8.619,0,15.58-1.16,22.377-3.314l3.314,17.072
		c-8.287,3.315-18.398,4.973-29.338,4.973c-27.516,0-43.263-15.912-43.263-41.273c0-20.554,12.764-43.262,40.943-43.262
		c26.189,0,36.135,20.388,36.135,40.444c0,4.31-0.498,8.122-0.83,9.945H287.823z M317.492,121.739c0-6.133-2.652-16.41-14.254-16.41
		c-10.609,0-14.918,9.614-15.582,16.41H317.492z"/>
</g>
<g>
	<path d="M264.077,17.446c3.05-0.498,7.595-0.871,12.638-0.871c6.226,0,10.583,0.934,13.571,3.299c2.49,1.992,3.86,4.918,3.86,8.778
		c0,5.354-3.798,9.027-7.409,10.335v0.187c2.926,1.183,4.544,3.984,5.603,7.844c1.308,4.731,2.615,10.21,3.424,11.829h-9.712
		c-0.685-1.183-1.681-4.607-2.926-9.774c-1.121-5.229-2.926-6.661-6.786-6.724h-2.863v16.498h-9.401V17.446z M273.478,35.501h3.735
		c4.731,0,7.533-2.366,7.533-6.039c0-3.86-2.615-5.79-6.973-5.852c-2.303,0-3.611,0.187-4.295,0.311V35.501z"/>
	<path d="M307.969,46.645c0.312,3.922,4.171,5.79,8.592,5.79c3.236,0,5.852-0.436,8.404-1.245l1.245,6.412
		c-3.113,1.245-6.911,1.868-11.02,1.868c-10.335,0-16.249-5.977-16.249-15.501c0-7.72,4.794-16.249,15.377-16.249
		c9.837,0,13.572,7.657,13.572,15.19c0,1.619-0.187,3.051-0.312,3.735H307.969z M319.112,40.17c0-2.304-0.996-6.163-5.354-6.163
		c-3.984,0-5.604,3.61-5.853,6.163H319.112z"/>
	<path d="M333.558,38.115c0-3.797-0.124-7.035-0.249-9.712h8.218l0.437,4.171h0.187c1.245-1.93,4.357-4.856,9.4-4.856
		c6.226,0,10.895,4.109,10.895,13.074v18.054h-9.463V41.976c0-3.922-1.369-6.6-4.794-6.6c-2.614,0-4.171,1.806-4.793,3.549
		c-0.249,0.561-0.374,1.494-0.374,2.366v17.556h-9.463V38.115z"/>
	<path d="M387.349,58.847l-0.56-3.051h-0.188c-1.992,2.428-5.104,3.735-8.716,3.735c-6.163,0-9.836-4.482-9.836-9.338
		c0-7.907,7.097-11.704,17.867-11.642v-0.436c0-1.618-0.872-3.922-5.541-3.922c-3.112,0-6.412,1.059-8.404,2.304l-1.743-6.102
		c2.117-1.183,6.288-2.677,11.828-2.677c10.148,0,13.386,5.977,13.386,13.136v10.584c0,2.926,0.124,5.728,0.436,7.408H387.349z
		 M386.229,44.466c-4.98-0.063-8.841,1.12-8.841,4.793c0,2.428,1.619,3.611,3.735,3.611c2.366,0,4.296-1.557,4.918-3.486
		c0.125-0.498,0.188-1.059,0.188-1.619V44.466z"/>
	<path d="M412.689,19.937c0,2.615-1.992,4.731-5.105,4.731c-2.988,0-4.98-2.116-4.918-4.731c-0.063-2.739,1.93-4.793,4.98-4.793
		S412.627,17.197,412.689,19.937z M402.915,58.847V28.403h9.463v30.443H402.915z"/>
	<path d="M419.911,50.566c1.743,1.059,5.354,2.304,8.155,2.304c2.864,0,4.047-0.996,4.047-2.553c0-1.556-0.934-2.303-4.482-3.486
		c-6.288-2.116-8.716-5.541-8.653-9.151c0-5.665,4.855-9.961,12.389-9.961c3.549,0,6.724,0.81,8.591,1.743l-1.681,6.537
		c-1.369-0.747-3.984-1.743-6.599-1.743c-2.304,0-3.611,0.934-3.611,2.49c0,1.432,1.184,2.179,4.918,3.486
		c5.79,1.992,8.219,4.918,8.28,9.4c0,5.665-4.482,9.836-13.198,9.836c-3.984,0-7.533-0.872-9.836-2.117L419.911,50.566z"/>
	<path d="M446.932,50.566c1.742,1.059,5.354,2.304,8.155,2.304c2.863,0,4.046-0.996,4.046-2.553c0-1.556-0.934-2.303-4.482-3.486
		c-6.287-2.116-8.715-5.541-8.653-9.151c0-5.665,4.856-9.961,12.39-9.961c3.548,0,6.723,0.81,8.591,1.743l-1.681,6.537
		c-1.37-0.747-3.984-1.743-6.6-1.743c-2.303,0-3.61,0.934-3.61,2.49c0,1.432,1.183,2.179,4.918,3.486
		c5.79,1.992,8.218,4.918,8.28,9.4c0,5.665-4.482,9.836-13.198,9.836c-3.984,0-7.533-0.872-9.837-2.117L446.932,50.566z"/>
	<path d="M491.32,58.847l-0.561-3.051h-0.187c-1.992,2.428-5.104,3.735-8.716,3.735c-6.163,0-9.836-4.482-9.836-9.338
		c0-7.907,7.097-11.704,17.867-11.642v-0.436c0-1.618-0.871-3.922-5.541-3.922c-3.112,0-6.412,1.059-8.404,2.304l-1.743-6.102
		c2.116-1.183,6.288-2.677,11.829-2.677c10.147,0,13.385,5.977,13.385,13.136v10.584c0,2.926,0.124,5.728,0.436,7.408H491.32z
		 M490.2,44.466c-4.98-0.063-8.841,1.12-8.841,4.793c0,2.428,1.619,3.611,3.735,3.611c2.366,0,4.296-1.557,4.919-3.486
		c0.124-0.498,0.187-1.059,0.187-1.619V44.466z"/>
	<path d="M506.887,38.115c0-3.797-0.125-7.035-0.249-9.712h8.218l0.436,4.171h0.187c1.245-1.93,4.358-4.856,9.401-4.856
		c6.225,0,10.895,4.109,10.895,13.074v18.054h-9.463V41.976c0-3.922-1.37-6.6-4.794-6.6c-2.614,0-4.171,1.806-4.794,3.549
		c-0.249,0.561-0.373,1.494-0.373,2.366v17.556h-9.463V38.115z"/>
	<path d="M566.219,58.1c-1.681,0.747-4.855,1.37-8.467,1.37c-9.836,0-16.124-5.977-16.124-15.564
		c0-8.902,6.101-16.187,17.432-16.187c2.49,0,5.229,0.436,7.222,1.183l-1.494,7.035c-1.121-0.498-2.802-0.934-5.292-0.934
		c-4.98,0-8.218,3.548-8.155,8.529c0,5.603,3.735,8.529,8.342,8.529c2.241,0,3.984-0.373,5.416-0.934L566.219,58.1z"/>
	<path d="M578.049,46.645c0.312,3.922,4.172,5.79,8.592,5.79c3.237,0,5.852-0.436,8.404-1.245l1.245,6.412
		c-3.112,1.245-6.91,1.868-11.019,1.868c-10.335,0-16.249-5.977-16.249-15.501c0-7.72,4.794-16.249,15.377-16.249
		c9.837,0,13.571,7.657,13.571,15.19c0,1.619-0.187,3.051-0.311,3.735H578.049z M589.193,40.17c0-2.304-0.996-6.163-5.354-6.163
		c-3.984,0-5.603,3.61-5.852,6.163H589.193z"/>
</g>
<g>
	<path d="M7.584,203.948c3.05-0.498,7.595-0.871,12.638-0.871c6.226,0,10.583,0.934,13.571,3.299c2.49,1.992,3.86,4.918,3.86,8.778
		c0,5.354-3.798,9.027-7.409,10.335v0.187c2.926,1.183,4.544,3.984,5.603,7.844c1.308,4.731,2.615,10.21,3.424,11.829h-9.712
		c-0.685-1.183-1.681-4.607-2.926-9.774c-1.121-5.229-2.926-6.661-6.786-6.724h-2.863v16.498H7.584V203.948z M16.985,222.002h3.735
		c4.731,0,7.533-2.366,7.533-6.039c0-3.86-2.615-5.79-6.973-5.852c-2.303,0-3.611,0.187-4.295,0.311V222.002z"/>
	<path d="M51.477,233.146c0.312,3.922,4.171,5.79,8.591,5.79c3.237,0,5.852-0.436,8.405-1.245l1.245,6.412
		c-3.113,1.245-6.911,1.868-11.02,1.868c-10.334,0-16.249-5.977-16.249-15.501c0-7.72,4.794-16.249,15.377-16.249
		c9.836,0,13.572,7.657,13.572,15.19c0,1.619-0.187,3.051-0.312,3.735H51.477z M62.62,226.671c0-2.304-0.996-6.163-5.354-6.163
		c-3.984,0-5.604,3.61-5.853,6.163H62.62z"/>
	<path d="M77.065,224.617c0-3.797-0.124-7.035-0.249-9.712h8.218l0.436,4.171h0.187c1.245-1.93,4.357-4.856,9.4-4.856
		c6.226,0,10.895,4.109,10.895,13.074v18.054h-9.463v-16.871c0-3.922-1.369-6.6-4.793-6.6c-2.615,0-4.171,1.806-4.793,3.549
		c-0.249,0.561-0.374,1.494-0.374,2.366v17.556h-9.463V224.617z"/>
	<path d="M130.856,245.348l-0.56-3.051h-0.187c-1.992,2.428-5.104,3.735-8.716,3.735c-6.163,0-9.836-4.482-9.836-9.338
		c0-7.907,7.097-11.704,17.867-11.642v-0.436c0-1.618-0.872-3.922-5.541-3.922c-3.112,0-6.412,1.059-8.404,2.304l-1.743-6.102
		c2.117-1.183,6.288-2.677,11.829-2.677c10.148,0,13.385,5.977,13.385,13.136v10.584c0,2.926,0.124,5.728,0.436,7.408H130.856z
		 M129.736,230.967c-4.98-0.063-8.841,1.12-8.841,4.793c0,2.428,1.619,3.611,3.735,3.611c2.366,0,4.296-1.557,4.918-3.486
		c0.125-0.498,0.187-1.059,0.187-1.619V230.967z"/>
	<path d="M156.197,206.438c0,2.615-1.992,4.731-5.105,4.731c-2.988,0-4.98-2.116-4.918-4.731c-0.063-2.739,1.93-4.793,4.98-4.793
		C154.205,201.645,156.135,203.699,156.197,206.438z M146.423,245.348v-30.443h9.463v30.443H146.423z"/>
	<path d="M163.419,237.068c1.743,1.059,5.354,2.304,8.155,2.304c2.864,0,4.047-0.996,4.047-2.553c0-1.556-0.934-2.303-4.482-3.486
		c-6.288-2.116-8.716-5.541-8.653-9.151c0-5.665,4.855-9.961,12.389-9.961c3.549,0,6.724,0.81,8.591,1.743l-1.681,6.537
		c-1.369-0.747-3.984-1.743-6.599-1.743c-2.304,0-3.611,0.934-3.611,2.49c0,1.432,1.183,2.179,4.918,3.486
		c5.79,1.992,8.218,4.918,8.28,9.4c0,5.665-4.482,9.836-13.198,9.836c-3.984,0-7.533-0.872-9.836-2.117L163.419,237.068z"/>
	<path d="M190.439,237.068c1.743,1.059,5.354,2.304,8.156,2.304c2.863,0,4.046-0.996,4.046-2.553c0-1.556-0.934-2.303-4.482-3.486
		c-6.288-2.116-8.716-5.541-8.654-9.151c0-5.665,4.856-9.961,12.389-9.961c3.548,0,6.724,0.81,8.591,1.743l-1.681,6.537
		c-1.37-0.747-3.984-1.743-6.6-1.743c-2.303,0-3.61,0.934-3.61,2.49c0,1.432,1.183,2.179,4.918,3.486
		c5.79,1.992,8.218,4.918,8.28,9.4c0,5.665-4.482,9.836-13.198,9.836c-3.984,0-7.533-0.872-9.837-2.117L190.439,237.068z"/>
	<path d="M234.828,245.348l-0.56-3.051h-0.187c-1.992,2.428-5.104,3.735-8.716,3.735c-6.163,0-9.836-4.482-9.836-9.338
		c0-7.907,7.097-11.704,17.867-11.642v-0.436c0-1.618-0.872-3.922-5.541-3.922c-3.112,0-6.412,1.059-8.404,2.304l-1.743-6.102
		c2.117-1.183,6.288-2.677,11.829-2.677c10.148,0,13.385,5.977,13.385,13.136v10.584c0,2.926,0.124,5.728,0.436,7.408H234.828z
		 M233.708,230.967c-4.98-0.063-8.841,1.12-8.841,4.793c0,2.428,1.619,3.611,3.735,3.611c2.366,0,4.296-1.557,4.918-3.486
		c0.125-0.498,0.187-1.059,0.187-1.619V230.967z"/>
	<path d="M250.395,224.617c0-3.797-0.125-7.035-0.249-9.712h8.218l0.436,4.171h0.187c1.245-1.93,4.358-4.856,9.401-4.856
		c6.226,0,10.895,4.109,10.895,13.074v18.054h-9.463v-16.871c0-3.922-1.37-6.6-4.794-6.6c-2.615,0-4.171,1.806-4.794,3.549
		c-0.249,0.561-0.373,1.494-0.373,2.366v17.556h-9.463V224.617z"/>
	<path d="M309.727,244.601c-1.681,0.747-4.855,1.37-8.467,1.37c-9.836,0-16.124-5.977-16.124-15.564
		c0-8.902,6.101-16.187,17.432-16.187c2.49,0,5.229,0.436,7.222,1.183l-1.494,7.035c-1.121-0.498-2.802-0.934-5.292-0.934
		c-4.98,0-8.218,3.548-8.155,8.529c0,5.603,3.735,8.529,8.342,8.529c2.241,0,3.984-0.373,5.416-0.934L309.727,244.601z"/>
	<path d="M321.557,233.146c0.312,3.922,4.172,5.79,8.592,5.79c3.237,0,5.852-0.436,8.404-1.245l1.245,6.412
		c-3.112,1.245-6.91,1.868-11.019,1.868c-10.335,0-16.249-5.977-16.249-15.501c0-7.72,4.794-16.249,15.377-16.249
		c9.837,0,13.571,7.657,13.571,15.19c0,1.619-0.187,3.051-0.311,3.735H321.557z M332.701,226.671c0-2.304-0.996-6.163-5.354-6.163
		c-3.984,0-5.603,3.61-5.852,6.163H332.701z"/>
</g>
<g>
	<path d="M-108.697,462.504c5.777-0.943,14.384-1.651,23.935-1.651c11.791,0,20.044,1.769,25.703,6.249
		c4.716,3.773,7.31,9.314,7.31,16.625c0,10.14-7.192,17.096-14.03,19.572v0.354c5.542,2.24,8.607,7.546,10.611,14.855
		c2.476,8.961,4.952,19.337,6.485,22.402h-18.394c-1.297-2.24-3.183-8.725-5.542-18.511c-2.122-9.904-5.542-12.616-12.852-12.734
		h-5.423v31.245h-17.804V462.504z M-90.893,496.696h7.074c8.96,0,14.267-4.48,14.267-11.438c0-7.31-4.952-10.965-13.206-11.083
		c-4.362,0-6.838,0.354-8.135,0.59V496.696z"/>
	<path d="M-25.571,517.801c0.59,7.428,7.9,10.965,16.271,10.965c6.131,0,11.083-0.825,15.917-2.357l2.358,12.144
		c-5.896,2.358-13.087,3.537-20.869,3.537c-19.572,0-30.773-11.318-30.773-29.358c0-14.62,9.079-30.772,29.123-30.772
		c18.629,0,25.703,14.502,25.703,28.769c0,3.065-0.354,5.777-0.589,7.074H-25.571z M-4.466,505.539
		c0-4.362-1.886-11.673-10.14-11.673c-7.546,0-10.611,6.839-11.083,11.673H-4.466z"/>
	<path d="M22.892,501.647c0-7.191-0.236-13.323-0.472-18.393h15.563l0.825,7.899h0.354c2.358-3.655,8.253-9.196,17.804-9.196
		c11.791,0,20.633,7.781,20.633,24.76v34.192H59.678v-31.952c0-7.428-2.594-12.498-9.079-12.498c-4.952,0-7.9,3.419-9.079,6.721
		c-0.472,1.062-0.708,2.83-0.708,4.48v33.249H22.892V501.647z"/>
	<path d="M124.766,540.91l-1.061-5.777h-0.354c-3.773,4.599-9.668,7.074-16.506,7.074c-11.673,0-18.629-8.489-18.629-17.686
		c0-14.974,13.441-22.166,33.838-22.048v-0.826c0-3.065-1.65-7.428-10.494-7.428c-5.895,0-12.144,2.005-15.917,4.362l-3.301-11.555
		c4.009-2.24,11.908-5.069,22.402-5.069c19.218,0,25.35,11.318,25.35,24.878v20.044c0,5.541,0.236,10.847,0.825,14.03H124.766z
		 M122.643,513.674c-9.432-0.117-16.742,2.123-16.742,9.079c0,4.599,3.065,6.839,7.074,6.839c4.48,0,8.135-2.948,9.314-6.604
		c0.236-0.943,0.354-2.004,0.354-3.065V513.674z"/>
	<path d="M172.756,467.22c0,4.952-3.773,8.961-9.668,8.961c-5.66,0-9.433-4.009-9.314-8.961c-0.118-5.188,3.655-9.079,9.432-9.079
		S172.639,462.032,172.756,467.22z M154.246,540.91v-57.655h17.921v57.655H154.246z"/>
	<path d="M186.434,525.229c3.301,2.005,10.14,4.363,15.446,4.363c5.423,0,7.664-1.887,7.664-4.835c0-2.947-1.769-4.362-8.489-6.603
		c-11.908-4.009-16.506-10.493-16.389-17.332c0-10.729,9.197-18.864,23.463-18.864c6.721,0,12.734,1.532,16.271,3.301l-3.184,12.38
		c-2.594-1.414-7.546-3.301-12.498-3.301c-4.363,0-6.838,1.769-6.838,4.716c0,2.712,2.24,4.127,9.314,6.603
		c10.965,3.773,15.563,9.314,15.681,17.804c0,10.729-8.489,18.629-24.996,18.629c-7.546,0-14.267-1.65-18.629-4.009L186.434,525.229
		z"/>
	<path d="M237.606,525.229c3.301,2.005,10.14,4.363,15.446,4.363c5.423,0,7.664-1.887,7.664-4.835c0-2.947-1.769-4.362-8.489-6.603
		c-11.908-4.009-16.506-10.493-16.389-17.332c0-10.729,9.197-18.864,23.463-18.864c6.721,0,12.734,1.532,16.271,3.301l-3.184,12.38
		c-2.594-1.414-7.546-3.301-12.498-3.301c-4.363,0-6.838,1.769-6.838,4.716c0,2.712,2.24,4.127,9.314,6.603
		c10.965,3.773,15.563,9.314,15.681,17.804c0,10.729-8.489,18.629-24.996,18.629c-7.546,0-14.267-1.65-18.629-4.009L237.606,525.229
		z"/>
	<path d="M321.675,540.91l-1.062-5.777h-0.354c-3.773,4.599-9.668,7.074-16.506,7.074c-11.673,0-18.629-8.489-18.629-17.686
		c0-14.974,13.441-22.166,33.838-22.048v-0.826c0-3.065-1.65-7.428-10.494-7.428c-5.895,0-12.144,2.005-15.917,4.362l-3.301-11.555
		c4.009-2.24,11.908-5.069,22.401-5.069c19.219,0,25.35,11.318,25.35,24.878v20.044c0,5.541,0.236,10.847,0.826,14.03H321.675z
		 M319.553,513.674c-9.433-0.117-16.742,2.123-16.742,9.079c0,4.599,3.064,6.839,7.074,6.839c4.48,0,8.135-2.948,9.314-6.604
		c0.235-0.943,0.354-2.004,0.354-3.065V513.674z"/>
	<path d="M351.155,501.647c0-7.191-0.236-13.323-0.472-18.393h15.563l0.825,7.899h0.354c2.358-3.655,8.254-9.196,17.804-9.196
		c11.79,0,20.634,7.781,20.634,24.76v34.192h-17.922v-31.952c0-7.428-2.594-12.498-9.079-12.498c-4.951,0-7.899,3.419-9.078,6.721
		c-0.472,1.062-0.708,2.83-0.708,4.48v33.249h-17.921V501.647z"/>
	<path d="M463.521,539.495c-3.184,1.415-9.196,2.594-16.035,2.594c-18.629,0-30.537-11.318-30.537-29.476
		c0-16.86,11.555-30.655,33.014-30.655c4.716,0,9.904,0.825,13.677,2.24l-2.83,13.323c-2.122-0.943-5.306-1.769-10.021-1.769
		c-9.433,0-15.563,6.721-15.445,16.152c0,10.611,7.074,16.153,15.799,16.153c4.245,0,7.546-0.707,10.258-1.769L463.521,539.495z"/>
	<path d="M485.928,517.801c0.589,7.428,7.899,10.965,16.271,10.965c6.131,0,11.083-0.825,15.917-2.357l2.358,12.144
		c-5.896,2.358-13.088,3.537-20.869,3.537c-19.572,0-30.773-11.318-30.773-29.358c0-14.62,9.079-30.772,29.123-30.772
		c18.629,0,25.703,14.502,25.703,28.769c0,3.065-0.354,5.777-0.59,7.074H485.928z M507.032,505.539
		c0-4.362-1.887-11.673-10.14-11.673c-7.546,0-10.611,6.839-11.083,11.673H507.032z"/>
</g>
<g>
	<path d="M109.278,386.916c1.337-0.217,3.33-0.381,5.542-0.381c2.729,0,4.641,0.408,5.951,1.445c1.092,0.875,1.693,2.158,1.693,3.85
		c0,2.348-1.666,3.959-3.249,4.531v0.082c1.283,0.52,1.993,1.748,2.457,3.439c0.573,2.074,1.146,4.477,1.501,5.188h-4.258
		c-0.3-0.52-0.737-2.021-1.283-4.287c-0.491-2.293-1.283-2.92-2.976-2.947H113.4v7.234h-4.122V386.916z M113.4,394.834h1.638
		c2.075,0,3.303-1.039,3.303-2.648c0-1.693-1.146-2.539-3.058-2.566c-1.01,0-1.583,0.082-1.883,0.137V394.834z"/>
	<path d="M128.524,399.719c0.137,1.721,1.829,2.539,3.767,2.539c1.419,0,2.566-0.191,3.686-0.545l0.546,2.811
		c-1.365,0.547-3.03,0.82-4.832,0.82c-4.531,0-7.125-2.621-7.125-6.799c0-3.385,2.102-7.125,6.743-7.125
		c4.313,0,5.951,3.359,5.951,6.662c0,0.709-0.082,1.338-0.136,1.637H128.524z M133.411,396.881c0-1.01-0.437-2.703-2.348-2.703
		c-1.747,0-2.457,1.584-2.566,2.703H133.411z"/>
	<path d="M139.746,395.98c0-1.666-0.055-3.086-0.109-4.26h3.603l0.191,1.83h0.082c0.546-0.848,1.911-2.131,4.122-2.131
		c2.73,0,4.777,1.803,4.777,5.734v7.916h-4.149v-7.398c0-1.719-0.601-2.893-2.102-2.893c-1.146,0-1.829,0.791-2.102,1.555
		c-0.109,0.246-0.164,0.656-0.164,1.037v7.699h-4.149V395.98z"/>
	<path d="M163.334,405.07l-0.246-1.338h-0.082c-0.874,1.064-2.238,1.637-3.822,1.637c-2.702,0-4.313-1.965-4.313-4.094
		c0-3.467,3.112-5.133,7.834-5.105v-0.189c0-0.711-0.382-1.721-2.429-1.721c-1.365,0-2.812,0.465-3.686,1.01l-0.764-2.676
		c0.928-0.518,2.757-1.174,5.187-1.174c4.45,0,5.869,2.621,5.869,5.762v4.641c0,1.281,0.055,2.51,0.191,3.248H163.334z
		 M162.843,398.764c-2.184-0.027-3.876,0.492-3.876,2.102c0,1.064,0.71,1.584,1.638,1.584c1.037,0,1.883-0.682,2.156-1.529
		c0.055-0.219,0.082-0.463,0.082-0.709V398.764z"/>
	<path d="M174.446,388.008c0,1.146-0.874,2.076-2.239,2.076c-1.31,0-2.184-0.93-2.156-2.076c-0.027-1.201,0.846-2.102,2.184-2.102
		C173.573,385.906,174.419,386.807,174.446,388.008z M170.16,405.07v-13.35h4.149v13.35H170.16z"/>
	<path d="M177.613,401.439c0.765,0.463,2.348,1.01,3.576,1.01c1.256,0,1.774-0.438,1.774-1.119s-0.41-1.01-1.965-1.529
		c-2.757-0.928-3.822-2.43-3.794-4.012c0-2.484,2.129-4.369,5.432-4.369c1.556,0,2.948,0.355,3.767,0.766l-0.737,2.865
		c-0.601-0.326-1.747-0.764-2.894-0.764c-1.01,0-1.583,0.41-1.583,1.092c0,0.629,0.519,0.955,2.157,1.529
		c2.539,0.873,3.603,2.156,3.63,4.121c0,2.484-1.965,4.314-5.787,4.314c-1.747,0-3.303-0.383-4.313-0.93L177.613,401.439z"/>
	<path d="M189.462,401.439c0.765,0.463,2.348,1.01,3.576,1.01c1.256,0,1.774-0.438,1.774-1.119s-0.41-1.01-1.965-1.529
		c-2.757-0.928-3.822-2.43-3.794-4.012c0-2.484,2.129-4.369,5.432-4.369c1.556,0,2.948,0.355,3.767,0.766l-0.737,2.865
		c-0.601-0.326-1.747-0.764-2.894-0.764c-1.01,0-1.583,0.41-1.583,1.092c0,0.629,0.519,0.955,2.157,1.529
		c2.539,0.873,3.603,2.156,3.63,4.121c0,2.484-1.965,4.314-5.787,4.314c-1.747,0-3.303-0.383-4.313-0.93L189.462,401.439z"/>
	<path d="M208.927,405.07l-0.246-1.338H208.6c-0.874,1.064-2.238,1.637-3.822,1.637c-2.702,0-4.313-1.965-4.313-4.094
		c0-3.467,3.112-5.133,7.834-5.105v-0.189c0-0.711-0.382-1.721-2.429-1.721c-1.365,0-2.812,0.465-3.686,1.01l-0.764-2.676
		c0.928-0.518,2.757-1.174,5.187-1.174c4.45,0,5.869,2.621,5.869,5.762v4.641c0,1.281,0.055,2.51,0.191,3.248H208.927z
		 M208.436,398.764c-2.184-0.027-3.876,0.492-3.876,2.102c0,1.064,0.71,1.584,1.638,1.584c1.037,0,1.883-0.682,2.156-1.529
		c0.055-0.219,0.082-0.463,0.082-0.709V398.764z"/>
	<path d="M215.753,395.98c0-1.666-0.055-3.086-0.109-4.26h3.603l0.191,1.83h0.082c0.546-0.848,1.911-2.131,4.122-2.131
		c2.73,0,4.777,1.803,4.777,5.734v7.916h-4.149v-7.398c0-1.719-0.601-2.893-2.102-2.893c-1.146,0-1.829,0.791-2.102,1.555
		c-0.109,0.246-0.164,0.656-0.164,1.037v7.699h-4.149V395.98z"/>
	<path d="M241.771,404.742c-0.737,0.328-2.129,0.602-3.712,0.602c-4.313,0-7.07-2.621-7.07-6.826c0-3.902,2.675-7.098,7.644-7.098
		c1.092,0,2.293,0.191,3.167,0.52l-0.655,3.084c-0.491-0.217-1.229-0.408-2.32-0.408c-2.184,0-3.604,1.555-3.576,3.74
		c0,2.455,1.638,3.738,3.658,3.738c0.982,0,1.747-0.164,2.375-0.408L241.771,404.742z"/>
	<path d="M246.959,399.719c0.137,1.721,1.829,2.539,3.767,2.539c1.419,0,2.566-0.191,3.686-0.545l0.546,2.811
		c-1.365,0.547-3.03,0.82-4.832,0.82c-4.531,0-7.125-2.621-7.125-6.799c0-3.385,2.102-7.125,6.743-7.125
		c4.313,0,5.951,3.359,5.951,6.662c0,0.709-0.082,1.338-0.136,1.637H246.959z M251.846,396.881c0-1.01-0.437-2.703-2.348-2.703
		c-1.747,0-2.457,1.584-2.566,2.703H251.846z"/>
</g>
</svg>
