<?xml version="1.0" encoding="utf-8"?>
<!-- Generator: Adobe Illustrator 26.0.2, SVG Export Plug-In . SVG Version: 6.00 Build 0)  -->
<svg version="1.1" id="Layer_1" xmlns="http://www.w3.org/2000/svg" xmlns:xlink="http://www.w3.org/1999/xlink" x="0px" y="0px"
	 viewBox="0 0 80 80" style="enable-background:new 0 0 80 80;" xml:space="preserve">
<style type="text/css">
	.st0{opacity:0.06;}
	.st1{fill:#D5D5D5;}
</style>
<g class="st0">
	<path class="st1" d="M24.14,8.44c0.08,0.02,0.17,0.04,0.25,0.07c0.26,0.11,0.54,0.21,0.78,0.35c0.26,0.16,0.47,0.38,0.57,0.68
		c0.02,0,0.04,0.01,0.05,0.01c0.04-0.15,0.09-0.31,0.11-0.46c0.04-0.36,0.4-0.75,0.75-0.72c0.24,0.02,0.5,0.1,0.7,0.23
		c0.15,0.09,0.26,0.29,0.31,0.46c0.1,0.33,0.21,0.68,0.2,1.02c-0.01,0.24,0.07,0.43,0.14,0.63c0.03,0.08,0.12,0.13,0.17,0.21
		c0.04,0.05,0.06,0.11,0.08,0.16c-0.14,0.08-0.48,0.05-0.6-0.04c-0.18-0.13-0.37-0.25-0.54-0.39c-0.12-0.1-0.21-0.24-0.32-0.35
		c-0.1-0.09-0.21-0.17-0.32-0.25c-0.02-0.14-0.07-0.28-0.05-0.42c0.02-0.15,0.08-0.31,0.15-0.44c0.06-0.12,0.16-0.21,0.24-0.32
		c0.01-0.01,0-0.05-0.01-0.07c-0.07-0.1-0.34-0.11-0.39,0c-0.07,0.15-0.14,0.31-0.17,0.47c-0.02,0.09,0.02,0.19,0.05,0.28
		c0.06,0.17,0.12,0.34,0.19,0.51c0.09,0.15,0.2,0.28,0.26,0.44c0.15,0.42,0.54,0.52,0.88,0.7c0.09,0.05,0.16,0.12,0.22,0.2
		c0.24,0.27,0.51,0.54,0.72,0.83c0.13,0.18,0.18,0.41,0.24,0.63c0.02,0.05-0.05,0.15-0.1,0.2c-0.08,0.08-0.18,0.13-0.28,0.19
		c-0.2,0.13-0.36,0.32-0.38,0.56c-0.01,0.12,0.07,0.29,0.16,0.35c0.27,0.19,0.35,0.44,0.2,0.72c-0.06,0.12-0.13,0.25-0.16,0.38
		c-0.02,0.1,0.02,0.21,0.05,0.31c0.02,0.09,0.07,0.18,0.11,0.3c-0.2,0.07-0.39,0.15-0.58,0.22c0,0.02,0,0.05,0.01,0.07
		c0.08,0.01,0.17,0.03,0.25,0.01c0.24-0.05,0.49-0.11,0.72-0.19c0.17-0.06,0.32-0.15,0.48-0.23c0.03-0.02,0.07-0.04,0.1-0.06
		c0.31-0.15,0.63-0.28,0.94-0.45c0.19-0.1,0.36-0.26,0.55-0.37c0.24-0.15,0.5-0.28,0.75-0.42c0.11,0.16,0.14,0.27,0.02,0.42
		c-0.13,0.16-0.19,0.38-0.3,0.56c-0.13,0.2-0.27,0.39-0.42,0.56c-0.18,0.21-0.38,0.41-0.57,0.61c-0.15,0.15-0.3,0.31-0.46,0.45
		c-0.15,0.14-0.32,0.26-0.48,0.4c-0.02,0.02-0.01,0.09-0.01,0.11c0.62,0.13,1.21,0.25,1.83,0.37c-0.23,0.3-0.49,0.46-0.79,0.59
		c-0.25,0.11-0.46,0.28-0.69,0.42c-0.04,0.03-0.1,0.04-0.15,0.05c-0.15,0.03-0.3,0.05-0.44,0.08c-0.24,0.04-0.48,0.09-0.73,0.12
		c-0.35,0.04-0.7,0.07-1.05,0.09c-0.17,0.01-0.35,0.01-0.52-0.03c-0.08-0.02-0.12-0.16-0.22-0.26c-0.02,0.21-0.04,0.41-0.05,0.62
		c-0.01,0.27,0.04,0.56-0.02,0.82c-0.04,0.18-0.12,0.39-0.36,0.48c-0.29,0.11-0.58,0.09-0.87,0.12c-0.11,0.01-0.21,0.04-0.32,0.05
		c-0.31,0.04-0.62,0.08-0.93,0.11c-0.19,0.02-0.38,0.01-0.57,0.03c-0.14,0.01-0.29,0.04-0.43,0.07c-0.19,0.04-0.38,0.09-0.58,0.12
		c-0.18,0.03-0.36,0.05-0.55,0.08c-0.21,0.03-0.43,0.05-0.64,0.09c-0.31,0.06-0.62,0.12-0.92,0.21c-0.51,0.14-1.03,0.29-1.53,0.47
		c-0.42,0.14-0.84,0.32-1.25,0.49c-0.38,0.16-0.76,0.32-1.12,0.51c-0.23,0.12-0.43,0.29-0.66,0.43c-0.17,0.1-0.35,0.19-0.51,0.29
		c-0.2,0.13-0.4,0.27-0.59,0.4c-0.1,0.07-0.2,0.13-0.3,0.19c-0.24,0.17-0.49,0.33-0.73,0.51c-0.12,0.09-0.22,0.21-0.34,0.3
		c-0.1,0.08-0.2,0.15-0.3,0.22c-0.12,0.08-0.29,0.12-0.36,0.23c-0.17,0.25-0.45,0.25-0.68,0.36c-0.13,0.06-0.46-0.03-0.57-0.13
		c-0.2-0.19-0.41-0.36-0.61-0.55c-0.12-0.12-0.22-0.26-0.34-0.39c-0.04-0.04-0.1-0.06-0.14-0.1c-0.2-0.19-0.4-0.37-0.58-0.57
		c-0.13-0.14-0.13-0.29,0.06-0.42c-0.1-0.03-0.17-0.04-0.24-0.07c-0.24-0.1-0.27-0.4-0.07-0.57c0.03-0.03,0.06-0.07,0.07-0.12
		c0-0.01-0.06-0.06-0.08-0.06c-0.05,0.02-0.12,0.04-0.14,0.08c-0.15,0.26-0.21,0.54-0.02,0.81c0.09,0.12,0.2,0.23,0.3,0.34
		c0.1,0.12,0.2,0.24,0.31,0.35c0.13,0.14,0.27,0.27,0.41,0.41c0.2,0.19,0.18,0.31-0.01,0.52c-0.21,0.24-0.46,0.43-0.69,0.64
		c-0.22,0.2-0.47,0.35-0.68,0.55c-0.13,0.12-0.25,0.22-0.41,0.25c-0.25,0.05-0.51,0.07-0.76,0.12c-0.13,0.02-0.24,0.07-0.37,0.1
		c-0.06,0.01-0.15,0.01-0.17-0.02c-0.03-0.06-0.06-0.17-0.03-0.22c0.14-0.26,0.31-0.5,0.47-0.75c0.07-0.11,0.15-0.22,0.22-0.34
		c0.08-0.13,0.03-0.24-0.13-0.25c-0.32-0.02-0.64-0.01-0.96-0.03c-0.25-0.02-0.49-0.08-0.74-0.11c-0.11-0.01-0.23,0.02-0.33-0.01
		c-0.24-0.05-0.46-0.13-0.7-0.18c-0.24-0.06-0.49-0.1-0.76-0.15c0.09-0.19,0.17-0.34,0.39-0.25c0.02,0.01,0.05,0,0.08,0
		c0.28-0.08,0.57-0.15,0.85-0.23c0.5-0.16,1.01-0.3,1.51-0.49c0.22-0.08,0.4-0.25,0.63-0.4c-0.25-0.08-0.24-0.09-0.36-0.31
		c-0.13-0.23-0.34-0.39-0.6-0.47c-0.1-0.03-0.21-0.07-0.27-0.14C6.52,23,6.51,22.89,6.52,22.81c0.05-0.31-0.09-0.7-0.38-0.83
		c-0.13-0.06-0.33-0.05-0.46,0c-0.21,0.08-0.42,0.06-0.53-0.08c-0.11-0.15-0.22-0.34-0.16-0.57c0.03-0.12-0.02-0.27-0.03-0.41
		c-0.01-0.23-0.01-0.46-0.02-0.69c0-0.09-0.02-0.19-0.03-0.28c0.22-0.24,0.35-0.51,0.24-0.86c-0.06-0.2-0.01-0.43-0.06-0.63
		c-0.05-0.2-0.05-0.43-0.27-0.56c-0.08-0.05-0.13-0.15-0.19-0.22c-0.24-0.27-0.52-0.25-0.77,0.11c0.17-0.01,0.29-0.03,0.42-0.03
		c0.05,0,0.11,0,0.14,0.03c0.11,0.1,0.21,0.2,0.29,0.31c0.06,0.08,0.08,0.19,0.12,0.29c0.16,0.37,0.08,0.73,0.03,1.11
		c-0.04,0.26-0.17,0.47-0.23,0.71c-0.01,0.02-0.09,0.05-0.11,0.04c-0.11-0.08-0.17-0.17-0.16-0.32c0-0.1-0.07-0.21-0.13-0.3
		c-0.05-0.09-0.13-0.16-0.19-0.25c-0.12-0.18-0.24-0.37-0.36-0.56c-0.12-0.18-0.26-0.36-0.34-0.56c-0.04-0.1,0.01-0.25,0.06-0.36
		c0.09-0.2,0.2-0.39,0.31-0.58c0.02-0.03,0.06-0.07,0.09-0.08c0.08-0.04,0.17-0.06,0.25-0.1c0.29-0.14,0.54-0.03,0.77,0.15
		c0.11,0.08,0.21,0.18,0.32,0.28c0.01-0.04,0.05-0.1,0.04-0.13c-0.08-0.26-0.02-0.52,0.02-0.78c0.04-0.25,0.14-0.48,0.22-0.72
		c0.02-0.05,0.09-0.09,0.14-0.11c0.33-0.1,0.67-0.2,1-0.29c0.06-0.02,0.14,0,0.2,0.03c0.13,0.06,0.24,0.16,0.38,0.22
		c0.11,0.04,0.24,0.07,0.36,0.06c0.21-0.02,0.21,0.14,0.23,0.24c0.01,0.07-0.06,0.19-0.12,0.23c-0.09,0.06-0.22,0.05-0.33,0.08
		c-0.08,0.03-0.16,0.07-0.24,0.11c0.01,0.03,0.01,0.06,0.02,0.1c0.1,0,0.21-0.01,0.3,0.02c0.08,0.03,0.22,0.12,0.21,0.16
		c-0.03,0.1-0.11,0.2-0.18,0.28c-0.02,0.02-0.08,0-0.13,0c-0.01,0.15,0.1,0.17,0.2,0.2c0.09,0.03,0.19,0.05,0.3,0.08
		c0.05-0.14,0.09-0.28,0.15-0.42c0.03-0.07,0.11-0.11,0.15-0.18c0.17-0.29,0.28-0.59,0.32-0.94c0.02-0.22,0.03-0.44,0.04-0.67
		c0.01-0.34-0.06-0.66-0.18-0.97c-0.14-0.37-0.29-0.74-0.41-1.11c-0.11-0.34-0.23-0.68-0.3-1.03c-0.06-0.29-0.06-0.6-0.07-0.9
		c-0.01-0.27-0.02-0.54,0-0.81c0.02-0.23,0.09-0.46,0.14-0.69C7.65,9.29,7.69,9,7.77,8.72C7.8,8.57,7.9,8.43,7.96,8.29
		c0.08-0.16,0.15-0.32,0.22-0.48c0.1-0.21,0.2-0.42,0.31-0.63c0.11-0.2,0.23-0.41,0.37-0.6C9.04,6.36,9.22,6.14,9.4,5.93
		C9.51,5.8,9.64,5.68,9.77,5.56C10,5.34,10.24,5.13,10.54,5c0.22-0.1,0.46-0.18,0.64-0.33C11.63,4.29,12.2,4.19,12.72,4
		c0.29-0.11,0.63-0.12,0.94-0.17c0.14-0.02,0.27-0.05,0.41-0.06c0.25-0.01,0.49-0.04,0.74-0.02c0.35,0.04,0.7,0.1,1.05,0.18
		c0.35,0.08,0.71,0.14,1.04,0.34c0.19,0.11,0.43,0.13,0.63,0.23c0.27,0.14,0.51,0.31,0.77,0.47c0.15,0.09,0.32,0.17,0.46,0.27
		c0.12,0.09,0.22,0.21,0.33,0.31c0.25,0.25,0.51,0.49,0.76,0.76c0.11,0.12,0.18,0.28,0.27,0.41c0.1,0.14,0.2,0.27,0.3,0.41
		c0.05,0.07,0.1,0.13,0.14,0.2c0.23,0.54,0.43,1.1,0.71,1.6c0.15,0.27,0.27,0.56,0.42,0.83c0.16,0.3,0.4,0.55,0.67,0.77
		c0.28,0.23,0.59,0.4,0.95,0.49c0.07,0.02,0.15,0.1,0.21,0.08c0.1-0.02,0.23,0.08,0.29-0.09c0.03-0.09,0.1-0.18,0.14-0.29
		c-0.22,0.05-0.45,0.16-0.52-0.15c-0.06-0.23,0.17-0.26,0.3-0.34c0-0.12-0.06-0.18-0.17-0.12c-0.13,0.08-0.33,0.04-0.37,0.25
		c-0.01,0.06-0.34-0.03-0.39-0.12c-0.07-0.12-0.09-0.24,0.05-0.35c0.09-0.07,0.14-0.2,0.19-0.32c0.07-0.15,0.12-0.33,0.21-0.46
		c0.08-0.12,0.21-0.2,0.34-0.28c0.11-0.07,0.24-0.11,0.36-0.14C24.09,8.67,24.15,8.58,24.14,8.44C24.15,8.44,24.14,8.44,24.14,8.44z
		 M25.62,13.42c0.09,0.05,0.19,0.1,0.28,0.16c0.05,0.03,0.13,0.07,0.14,0.12c0.12,0.48,0.45,0.83,0.76,1.18
		c0.23,0.26,0.17,0.56-0.15,0.69c-0.14,0.06-0.22,0.15-0.26,0.29c-0.04,0.17-0.09,0.33-0.14,0.51c0.24-0.02,0.5-0.08,0.75-0.05
		c0.16,0.02,0.3-0.14,0.48-0.02c0.06,0.04,0.19-0.05,0.09-0.21c-0.11,0.04-0.21,0.1-0.32,0.11c-0.1,0.01-0.25,0-0.3-0.07
		c-0.09-0.12-0.12-0.28-0.19-0.47c0.14-0.01,0.23-0.01,0.33-0.01c0.09,0,0.17,0.02,0.26,0c0.21-0.05,0.29-0.44,0.11-0.61
		c-0.1-0.09-0.24-0.16-0.33-0.26c-0.15-0.17-0.42-0.21-0.5-0.46c-0.02-0.06-0.1-0.1-0.15-0.15c-0.06-0.06-0.14-0.12-0.17-0.19
		c-0.09-0.2-0.16-0.41-0.23-0.59C25.9,13.42,25.76,13.42,25.62,13.42c-0.03-0.01-0.05-0.04-0.08-0.05
		c-0.23-0.06-0.48-0.09-0.68-0.19c-0.16-0.08-0.28-0.05-0.39,0.02c-0.11,0.08-0.18,0.21-0.29,0.29c-0.23,0.16-0.47,0.32-0.72,0.45
		c-0.2,0.11-0.27,0.22-0.19,0.43c0.41,1.1,0.83,2.21,1.24,3.31c0.07,0.19,0.23,0.28,0.41,0.32c0.11,0.02,0.23,0.02,0.34,0.02
		c0.13,0,0.25-0.02,0.42-0.04c-0.18-0.13-0.3-0.14-0.5-0.11c-0.34,0.05-0.69-0.08-0.54-0.53c0.04-0.13,0.1-0.13,0.2-0.1
		c0.05,0.02,0.11,0,0.17,0.01c0-0.02,0-0.03,0-0.05c-0.21-0.06-0.36-0.23-0.36-0.45c0-0.2,0.19-0.22,0.32-0.27
		c0.06-0.03,0.12-0.06,0.18-0.07c0.15-0.02,0.29-0.03,0.44-0.03c0.14,0,0.27,0.01,0.45,0.01c-0.1-0.06-0.16-0.12-0.21-0.13
		c-0.26-0.01-0.53-0.01-0.79-0.02c-0.04,0-0.1-0.04-0.11-0.07c-0.03-0.11-0.05-0.23-0.07-0.35c-0.03-0.16,0.1-0.16,0.2-0.16
		c0.1,0,0.2,0.04,0.3,0.05c0.47,0.05,0.74-0.3,0.56-0.74c-0.04-0.09-0.15-0.16-0.2-0.25c-0.14-0.27-0.29-0.54-0.4-0.83
		C25.2,13.59,25.28,13.48,25.62,13.42z M19.67,7.66c-0.09,0.19-0.16,0.37-0.25,0.54c-0.08,0.16-0.14,0.36-0.27,0.48
		C19,8.83,18.79,8.93,18.59,9.02c-0.15,0.07-0.35,0.13-0.5,0.1c-0.3-0.07-0.59-0.19-0.87-0.32c-0.25-0.12-0.48-0.28-0.73-0.41
		c-0.32-0.16-0.64-0.34-0.98-0.46c-0.34-0.11-0.7-0.2-1.05-0.2c-0.43,0-0.86,0.1-1.26,0.29c-0.13,0.06-0.28,0.09-0.39,0.17
		c-0.21,0.15-0.41,0.32-0.6,0.49c-0.17,0.16-0.35,0.32-0.47,0.52c-0.16,0.27-0.27,0.58-0.41,0.86c-0.05,0.1-0.13,0.18-0.2,0.27
		c-0.05,0.07-0.12,0.14-0.13,0.22c-0.06,0.31-0.08,0.64-0.17,0.95c-0.08,0.25-0.24,0.45-0.48,0.6c-0.21,0.13-0.42,0.2-0.65,0.23
		c-0.29,0.04-0.56-0.04-0.81-0.18c-0.15-0.08-0.3-0.16-0.44-0.24c-0.02,0.01-0.03,0.02-0.05,0.03c0.03,0.14,0.04,0.29,0.09,0.42
		c0.82,2.21,1.65,4.41,2.47,6.61c0.12,0.33,0.28,0.36,0.58,0.27c0.23-0.07,0.45-0.16,0.67-0.25c0.2-0.08,0.25-0.17,0.14-0.35
		c-0.12-0.21-0.26-0.41-0.4-0.62c-0.08-0.11-0.17-0.21-0.25-0.32c-0.12-0.16-0.23-0.33-0.34-0.49c-0.07-0.1-0.1-0.21-0.22-0.28
		c-0.12-0.07-0.16-0.25-0.25-0.37c-0.09-0.13-0.19-0.26-0.31-0.36c-0.21-0.2-0.19-0.57,0.04-0.75c0.04-0.03,0.08-0.09,0.08-0.12
		c-0.02-0.13,0.07-0.14,0.15-0.18c0.4-0.2,0.83-0.29,1.26-0.32c0.34-0.03,0.66-0.15,1.02-0.13c0.3,0.02,0.61-0.1,0.91-0.15
		c0.03-0.01,0.07,0.01,0.11,0.01c0.08,0,0.17-0.01,0.25-0.01c0-0.02,0-0.04-0.01-0.06c-0.24-0.11-0.33-0.23-0.33-0.42
		c0-0.06-0.05-0.13-0.08-0.19c-0.06,0.03-0.14,0.05-0.19,0.1c-0.13,0.14-0.25,0.3-0.37,0.45c-0.05-0.17-0.06-0.32-0.06-0.47
		c-0.01-0.27-0.03-0.54-0.03-0.81c0-0.2,0.01-0.4,0.03-0.6c0.01-0.12-0.12-0.39-0.25-0.45c-0.19-0.08-0.39-0.17-0.59-0.24
		c-0.16-0.06-0.32-0.08-0.48-0.14c-0.18-0.07-0.35-0.16-0.58-0.27c0.13-0.06,0.19-0.1,0.26-0.13c0.42-0.16,0.85-0.32,1.27-0.48
		c0.18-0.07,0.27-0.19,0.27-0.38c0-0.23,0.01-0.46,0.01-0.69c0-0.23-0.01-0.46-0.01-0.69c0-0.17,0-0.35,0-0.57
		c0.09,0.06,0.16,0.08,0.21,0.14c0.15,0.19,0.3,0.39,0.45,0.58c0.08,0.1,0.16,0.18,0.24,0.28c0.09,0.11,0.19,0.21,0.26,0.33
		c0.13,0.22,0.35,0.35,0.61,0.24c0.39-0.17,0.8-0.3,1.2-0.45c0.06-0.02,0.13-0.05,0.21-0.08c0,0.07,0.01,0.11,0,0.14
		c-0.16,0.29-0.32,0.57-0.5,0.85c-0.1,0.16-0.22,0.3-0.33,0.46c-0.02,0.03-0.04,0.09-0.03,0.13c0.03,0.29,0.21,0.52,0.37,0.75
		c0.09,0.13,0.21,0.23,0.31,0.35c0.12,0.13,0.24,0.26,0.34,0.41c0.1,0.14,0.19,0.3,0.28,0.45c-0.01,0.02-0.03,0.04-0.04,0.05
		c-0.32-0.09-0.64-0.18-1.01-0.28c0.14,0.37,0.25,0.69,0.38,0.99c0.05,0.11,0.17,0.13,0.25,0.04c0.24-0.24,0.46-0.49,0.76-0.65
		c0.12-0.07,0.29-0.12,0.34-0.23c0.1-0.2,0.3-0.22,0.44-0.33c0.25-0.2,0.57-0.31,0.83-0.51c0.25-0.19,0.56-0.3,0.86-0.42
		c0.1-0.04,0.25-0.06,0.35-0.02c0.24,0.1,0.47,0.23,0.51,0.54c0.03,0.25,0.1,0.5,0.13,0.75c0.03,0.28,0.03,0.56,0.05,0.84
		c0.02,0.24,0.07,0.47,0.1,0.71c0.01,0.12,0,0.25,0.02,0.38c0.02,0.21,0.06,0.42,0.08,0.64c0.02,0.2,0.15,0.37,0.29,0.31
		c0.15-0.06,0.29-0.15,0.45-0.22c0.23-0.09,0.45-0.21,0.69-0.25c0.26-0.05,0.35-0.13,0.25-0.37c-0.35-0.88-0.7-1.75-1.04-2.63
		c-0.53-1.37-1.04-2.75-1.57-4.12C19.92,8.08,19.78,7.87,19.67,7.66z M12.28,5.16c-0.58,0.21-1.15,0.42-1.6,0.88
		c-0.19,0.19-0.42,0.35-0.62,0.54C9.93,6.71,9.81,6.86,9.68,7.01C9.51,7.22,9.34,7.44,9.16,7.67C9.15,7.68,9.15,7.7,9.14,7.71
		C9.05,7.92,8.95,8.13,8.86,8.34C8.74,8.59,8.59,8.84,8.51,9.11C8.44,9.36,8.43,9.62,8.39,9.88c-0.01,0.07-0.02,0.15-0.03,0.22
		c-0.03,0.25-0.12,0.5-0.08,0.74c0.06,0.33,0.18,0.65,0.47,0.88c0.28,0.23,0.59,0.23,0.91,0.22c0.42,0,0.81-0.32,0.89-0.73
		c0.07-0.35,0.11-0.71,0.18-1.06c0.05-0.23,0.1-0.47,0.2-0.68c0.14-0.28,0.2-0.6,0.45-0.83c0.17-0.16,0.26-0.39,0.43-0.54
		c0.25-0.22,0.53-0.43,0.83-0.6c0.44-0.24,0.93-0.37,1.44-0.41c0.01,0,0.02,0.01,0.04,0.01c0.22,0,0.44-0.02,0.65,0.01
		c0.29,0.03,0.59,0.06,0.86,0.16c0.29,0.1,0.53,0.31,0.81,0.43c0.38,0.17,0.61,0.52,0.94,0.74c0.2,0.13,0.42,0.31,0.64,0.33
		c0.49,0.05,0.86-0.23,1.12-0.64C19.25,8,19.3,7.81,19.31,7.63c0.01-0.2,0-0.43-0.1-0.59c-0.07-0.12-0.12-0.28-0.29-0.37
		c-0.21-0.12-0.35-0.35-0.54-0.51c-0.18-0.15-0.37-0.29-0.57-0.42c-0.26-0.17-0.52-0.37-0.8-0.49c-0.37-0.16-0.77-0.29-1.16-0.38
		c-0.36-0.09-0.73-0.15-1.1-0.16c-0.34-0.02-0.67,0.04-1.01,0.07c-0.37,0.03-0.73,0.1-1.08,0.24C12.54,5.07,12.41,5.12,12.28,5.16z
		 M10.76,23.27c0.01,0.02,0.03,0.03,0.04,0.05c0.16-0.11,0.33-0.22,0.46-0.35c0.06-0.06,0.11-0.21,0.08-0.29
		c-0.37-1.09-0.75-2.18-1.13-3.26c-0.07-0.21-0.23-0.31-0.45-0.23c-0.35,0.14-0.72,0.11-1.08,0.13c-0.17,0.01-0.37,0.05-0.44,0.28
		c-0.03,0.11-0.12,0.2-0.17,0.3c-0.02,0.04-0.03,0.12-0.01,0.15c0.1,0.11,0.22,0.19,0.32,0.3c0.07,0.08,0.12,0.18,0.15,0.28
		c0.03,0.11,0.02,0.23,0.03,0.34c0.02,0.16,0.06,0.31,0.06,0.47c0.01,0.24,0.1,0.38,0.33,0.42c0.27,0.05,0.48-0.04,0.65-0.24
		c0.16-0.19,0.28-0.22,0.48-0.1c0.11,0.07,0.13,0.2,0.04,0.29c-0.06,0.06-0.12,0.13-0.18,0.2c0.11,0.07,0.18,0.14,0.27,0.16
		c0.17,0.04,0.16,0.18,0.15,0.28c-0.03,0.16-0.1,0.3-0.15,0.45c0.15-0.1,0.26-0.24,0.39-0.36c0.06-0.06,0.16-0.12,0.23-0.11
		c0.2,0.04,0.29,0.22,0.28,0.39c0,0.1-0.14,0.19-0.23,0.29C10.86,23.18,10.81,23.23,10.76,23.27z M23.04,15.06
		c0.02-0.01,0.04-0.03,0.07-0.04c-0.02-0.05-0.04-0.1-0.06-0.15c-0.67-1.78-1.33-3.57-2-5.35c-0.26-0.69-0.57-1.37-0.85-2.05
		c-0.01-0.03-0.02-0.08-0.04-0.08c-0.19-0.07-0.18-0.26-0.27-0.4c-0.09-0.15-0.18-0.35-0.32-0.41c-0.29-0.12-0.41-0.38-0.62-0.57
		c-0.22-0.2-0.43-0.42-0.66-0.6C18.06,5.25,17.81,5.13,17.57,5c-0.26-0.15-0.51-0.35-0.83-0.35c-0.02,0-0.04-0.03-0.06-0.04
		c-0.17-0.05-0.34-0.11-0.52-0.15c-0.26-0.06-0.54-0.09-0.8-0.16c-0.34-0.1-0.69-0.12-1.04-0.1c-0.3,0.01-0.6,0.07-0.9,0.11
		c-0.11,0.01-0.22,0.03-0.34,0.04c-0.36,0.05-0.74,0.04-1.07,0.21c-0.07,0.04-0.15,0.07-0.22,0.11c-0.09,0.06-0.17,0.14-0.27,0.2
		c-0.28,0.16-0.56,0.32-0.84,0.47c-0.15,0.08-0.3,0.13-0.41,0.28C10.15,5.78,9.98,5.9,9.83,6.04C9.66,6.21,9.51,6.4,9.37,6.61
		C9.19,6.89,8.93,7.12,8.74,7.39C8.63,7.55,8.6,7.76,8.53,7.95C8.56,7.96,8.58,7.98,8.6,7.99c0.04-0.03,0.09-0.06,0.12-0.1
		c0.1-0.18,0.18-0.37,0.29-0.54c0.13-0.2,0.28-0.4,0.44-0.58c0.17-0.21,0.36-0.4,0.54-0.6c0.18-0.18,0.4-0.31,0.59-0.49
		c0.2-0.2,0.49-0.34,0.75-0.47c0.32-0.15,0.67-0.25,1-0.38c0.12-0.05,0.27-0.05,0.31-0.22c0.01-0.04,0.15-0.09,0.19-0.07
		c0.15,0.08,0.26-0.01,0.38-0.04c0.17-0.04,0.35-0.07,0.52-0.09c0.11-0.02,0.23-0.04,0.34-0.03c0.28,0.01,0.55,0.06,0.83,0.06
		c0.31,0,0.62-0.02,0.92,0.1c0.13,0.05,0.28,0.05,0.42,0.1c0.17,0.05,0.34,0.11,0.51,0.18c0.17,0.07,0.33,0.14,0.49,0.22
		c0.19,0.09,0.39,0.16,0.56,0.28c0.18,0.13,0.33,0.3,0.5,0.45c0.2,0.17,0.42,0.31,0.62,0.48c0.09,0.07,0.15,0.2,0.25,0.25
		c0.15,0.07,0.23,0.18,0.3,0.32c0.06,0.12,0.12,0.27,0.22,0.35c0.23,0.17,0.32,0.43,0.43,0.67c0.31,0.68,0.59,1.38,0.86,2.08
		c0.61,1.6,1.21,3.2,1.82,4.8C22.86,14.83,22.96,14.94,23.04,15.06z M15.36,12.18c0,0,0.01-0.03,0.02-0.06
		c0.02-0.05,0.05-0.09,0.07-0.14c0.04,0.05,0.08,0.09,0.11,0.14c0.04,0.08,0.06,0.16,0.09,0.24c0.08,0.17,0.26,0.24,0.44,0.12
		c-0.19-0.23-0.37-0.48-0.58-0.68c-0.23-0.22-0.34-0.54-0.21-0.77c0.13-0.23,0.27-0.46,0.39-0.69c0.02-0.04,0-0.1,0-0.18
		c-0.31,0.12-0.59,0.22-0.87,0.33c-0.21,0.08-0.36,0.02-0.46-0.18c-0.07-0.13-0.14-0.27-0.24-0.39C14,9.76,13.85,9.62,13.68,9.45
		c-0.02,0.03-0.05,0.08-0.06,0.14C13.6,9.7,13.6,9.81,13.6,9.92c0,0.22-0.01,0.44,0.02,0.65c0.03,0.23-0.02,0.37-0.24,0.46
		c-0.27,0.1-0.55,0.2-0.82,0.31c-0.06,0.02-0.11,0.05-0.16,0.07c0,0.02,0,0.04,0,0.06c0.31,0.11,0.62,0.24,0.94,0.33
		c0.12,0.04,0.19,0.09,0.24,0.2c0.14,0.29,0.03,0.59,0.07,0.88c0.03,0.17,0.04,0.34,0.06,0.51c0.02,0,0.04,0.01,0.06,0.01
		c0.06-0.07,0.12-0.15,0.17-0.22c0.1-0.15,0.17-0.32,0.28-0.45c0.11-0.12,0.14-0.21,0.06-0.35c-0.13-0.25-0.26-0.51-0.38-0.77
		c-0.12-0.26,0-0.5,0.13-0.72c0.02-0.03,0.16-0.04,0.2-0.01c0.16,0.12,0.3,0.25,0.44,0.4c0.15,0.17,0.32,0.33,0.32,0.59
		c0,0.11,0.02,0.23,0.03,0.34C15.13,12.22,15.22,12.2,15.36,12.18z M17.22,19.28c-0.2,0.11-0.38,0.24-0.57,0.33
		c-0.45,0.21-0.9,0.4-1.36,0.6c-0.05,0.02-0.11,0.06-0.14,0.11c-0.14,0.23-0.62,0.28-0.79,0.08c-0.07-0.08-0.14-0.15-0.23-0.25
		c-0.01,0.06-0.02,0.09-0.01,0.11c0.06,0.2,0.26,0.34,0.23,0.62c0.25-0.14,0.48-0.27,0.71-0.39c0.25-0.13,0.5-0.26,0.75-0.36
		c0.48-0.2,0.97-0.35,1.41-0.64c0.15-0.1,0.38-0.05,0.57-0.11c0.58-0.18,1.13-0.48,1.74-0.56c0.18-0.03,0.36-0.08,0.54-0.12
		c0.09-0.02,0.17-0.06,0.3-0.11c-0.08-0.04-0.11-0.08-0.14-0.07c-0.19,0.04-0.36,0.12-0.58,0.1c-0.2-0.02-0.41,0.08-0.61,0.13
		c-0.42,0.12-0.83,0.25-1.24,0.38c-0.25,0.08-0.33,0.04-0.42-0.2c-0.51-1.37-1.03-2.74-1.54-4.12c-0.11-0.29-0.09-0.36,0.15-0.55
		c0.03-0.03,0.07-0.05,0.1-0.07c-0.13-0.35-0.26-0.69-0.39-1.03c0.03,0.21,0.11,0.4,0.17,0.59c0.11,0.32,0.03,0.61-0.3,0.76
		c-0.05,0.02-0.1,0.05-0.12,0.06C16.04,16.13,16.63,17.71,17.22,19.28z M10.79,19.43c-0.02-0.05-0.03-0.11-0.05-0.16
		c-0.7-1.88-1.42-3.76-2.11-5.65c-0.2-0.54-0.49-1.05-0.54-1.64c-0.02-0.2-0.04-0.4-0.05-0.6c-0.01-0.22-0.01-0.45-0.01-0.67
		c0-0.24-0.04-0.48-0.01-0.73C8.07,9.66,8.19,9.39,8.28,9.1C8.33,8.95,8.4,8.75,8.24,8.55C8.17,8.67,8.09,8.77,8.06,8.88
		c-0.08,0.33-0.14,0.66-0.2,1c-0.02,0.13-0.01,0.26-0.01,0.4c-0.01,0.32-0.02,0.63-0.02,0.95c0,0.18,0.03,0.36,0.06,0.54
		c0.02,0.2,0.02,0.41,0.08,0.59c0.61,1.72,1.31,3.41,1.84,5.15c0.03,0.09,0.06,0.18,0.1,0.27c0.04,0.1,0.1,0.19,0.14,0.29
		c0.1,0.22,0.21,0.44,0.29,0.67c0.07,0.19,0.1,0.4,0.16,0.59C10.55,19.49,10.65,19.53,10.79,19.43z M6.91,18.53
		c0.21,0.28,0.02,0.53-0.03,0.79c-0.02,0.11-0.1,0.16-0.25,0.11c-0.13-0.05-0.29-0.05-0.43-0.05c-0.08,0-0.16,0.05-0.23,0.08
		c0.01-0.08,0.03-0.17,0.01-0.23c-0.1-0.28-0.2-0.56-0.31-0.84c-0.01-0.03-0.07-0.05-0.11-0.05c-0.02,0-0.06,0.06-0.06,0.09
		c0,0.09-0.01,0.19,0.03,0.27c0.12,0.25,0.05,0.52,0.1,0.77c0.06,0.3-0.15,0.51-0.2,0.77c-0.04,0.19-0.02,0.38,0.1,0.54
		c0.1,0.13,0.21,0.11,0.29-0.05c0.13-0.28,0.22-0.57,0.44-0.8c0.15-0.16,0.28-0.32,0.48-0.41c0.26-0.12,0.55-0.19,0.71-0.46
		c0.01-0.02,0.07-0.02,0.1-0.02c0.08,0,0.21,0.03,0.23-0.01c0.05-0.08,0.06-0.19,0.06-0.29c0.01-0.1-0.01-0.2-0.01-0.3
		c0.1,0.01,0.15,0.01,0.19,0.02c0.05,0.01,0.11,0.01,0.17,0.02c-0.11-0.25-0.33-0.42-0.42-0.38c-0.03,0.12-0.06,0.21-0.1,0.35
		c-0.13-0.15-0.22-0.26-0.31-0.36c0.02,0.12,0.05,0.23,0.11,0.34c0.05,0.11,0.06,0.21-0.01,0.32C7.38,18.83,7.41,19,7.22,18.95
		C7.11,18.82,7.17,18.58,6.91,18.53z M11.72,22.47c0.41-0.03,0.62-0.27,0.88-0.45c0.1-0.07,0.22-0.13,0.32-0.2
		c0.16-0.11,0.3-0.24,0.46-0.34c0.19-0.12,0.4-0.21,0.59-0.31c0.12-0.06,0.16-0.25,0.05-0.31c-0.09-0.05-0.22-0.08-0.31-0.05
		c-0.14,0.04-0.26,0.15-0.39,0.22c-0.04,0.02-0.08,0.03-0.13,0.04c-0.09,0.01-0.18,0.01-0.26,0.03c-0.49,0.13-0.94,0.38-1.37,0.64
		c-0.05,0.03-0.1,0.16-0.08,0.22C11.54,22.13,11.64,22.31,11.72,22.47z M9.57,17.69C9.53,17.6,9.51,17.55,9.5,17.5
		c-0.1-0.27-0.2-0.55-0.31-0.82c-0.02-0.06-0.18-0.12-0.2-0.1c-0.1,0.09-0.2,0.19-0.26,0.31c-0.1,0.2-0.14,0.42-0.25,0.61
		c-0.13,0.24-0.19,0.45-0.06,0.72c0.18,0.37,0.41,0.47,0.78,0.26c-0.02-0.24-0.04-0.48-0.07-0.75C9.26,17.72,9.4,17.71,9.57,17.69z
		 M26.65,11.4c-0.03-0.14-0.04-0.26-0.09-0.36c-0.2-0.37-0.41-0.73-0.61-1.1c-0.15,0.04-0.11,0.08-0.05,0.17
		c0.09,0.14,0.17,0.29,0.19,0.45c0.05,0.31,0.12,0.59,0.32,0.84c0.04,0.04,0.03,0.14,0.01,0.2c-0.01,0.03-0.09,0.05-0.14,0.06
		c-0.07,0.02-0.14,0.03-0.19,0.04c-0.01,0.1,0,0.18-0.03,0.25c-0.03,0.06-0.1,0.1-0.15,0.15c0.13,0.09,0.25,0.13,0.33-0.06
		c0.01-0.03,0.08-0.06,0.11-0.06c0.12,0.01,0.24,0.03,0.35,0.06c0.3,0.1,0.6,0.21,0.91,0.31c0.03-0.06,0.05-0.12,0.09-0.17
		c0.08-0.13,0.04-0.2-0.09-0.26c-0.03-0.01-0.06-0.04-0.08-0.06C27.29,11.59,27.04,11.34,26.65,11.4z M22.55,12.48
		c0.14,0.01,0.27,0.01,0.39,0.03c0.05,0.01,0.1,0.05,0.14,0.09c0.07,0.09,0.15,0.18,0.19,0.28c0.05,0.13,0.17,0.16,0.25,0.13
		c0.1-0.03,0.24-0.12,0.27-0.21c0.11-0.34-0.06-0.82-0.5-0.9c-0.1-0.02-0.22-0.06-0.29-0.13c-0.19-0.16-0.39-0.29-0.66-0.32
		c-0.02,0.09-0.09,0.19-0.06,0.27C22.35,11.97,22.46,12.22,22.55,12.48z M8.72,23.17c0.14-0.1,0.24-0.17,0.34-0.24
		c0.16-0.12,0.16-0.27,0.01-0.4c-0.2-0.17-0.43-0.2-0.67-0.13c-0.22,0.07-0.26,0.05-0.35-0.17c-0.1-0.24-0.16-0.47-0.09-0.73
		c0.07-0.27-0.09-0.51-0.18-0.75c-0.02-0.05-0.09-0.08-0.14-0.11c-0.01,0.06-0.05,0.12-0.04,0.18c0.03,0.15,0.1,0.3,0.11,0.46
		c0.01,0.2-0.02,0.4-0.03,0.6c0,0.13,0.04,0.29-0.01,0.4c-0.1,0.2-0.05,0.36,0.02,0.54c0.12,0.28,0.3,0.33,0.53,0.14
		c0.05-0.04,0.08-0.09,0.12-0.14c0.07-0.1,0.17-0.1,0.22,0.01C8.64,22.91,8.67,23.01,8.72,23.17z M24.2,17.92
		c-0.06-0.16-0.11-0.3-0.17-0.44c-0.06-0.14-0.14-0.21-0.31-0.15c-0.78,0.3-1.56,0.59-2.35,0.88c-0.05,0.02-0.09,0.05-0.14,0.07
		c0,0.02,0.01,0.04,0.01,0.07c0.09,0,0.19,0,0.28-0.01c0.11-0.01,0.22-0.03,0.34-0.06c0.17-0.04,0.34-0.1,0.53-0.07
		c0.15,0.02,0.31-0.05,0.46-0.07c0.14-0.02,0.28-0.07,0.41-0.05C23.59,18.13,23.88,18.05,24.2,17.92z M23.27,15.46
		c-0.13,0.05-0.24,0.09-0.35,0.13c-0.57,0.21-1.14,0.43-1.71,0.64c-0.18,0.07-0.16,0.19-0.12,0.33c0.04,0.18,0.14,0.13,0.26,0.1
		c0.18-0.06,0.36-0.09,0.54-0.14c0.06-0.02,0.12-0.04,0.18-0.07c0.14-0.07,0.27-0.16,0.41-0.22c0.24-0.1,0.5-0.19,0.75-0.28
		c0.14-0.05,0.18-0.14,0.13-0.28C23.33,15.62,23.31,15.56,23.27,15.46z M10.94,20.3c0.5-0.17,0.98-0.33,1.45-0.5
		c0.13-0.05,0.25-0.12,0.38-0.19c0.11-0.06,0.2-0.15,0.11-0.26c-0.08-0.09-0.14-0.25-0.33-0.17c-0.45,0.18-0.91,0.35-1.36,0.52
		c-0.13,0.05-0.26,0.1-0.41,0.15C10.83,20,10.88,20.12,10.94,20.3z M13.6,20.52c-0.09-0.37-0.13-0.39-0.45-0.27
		c-0.61,0.23-1.21,0.46-1.82,0.68c-0.14,0.05-0.18,0.15-0.13,0.28c0.05,0.14,0.16,0.14,0.28,0.1c0.25-0.1,0.51-0.19,0.76-0.29
		C12.69,20.86,13.14,20.69,13.6,20.52z M13.7,22.42c0.14-0.05,0.26-0.03,0.33,0.12c0.06,0.13,0.13,0.26,0.22,0.38
		c0.06,0.07,0.16,0.11,0.25,0.17c0-0.08,0-0.16-0.02-0.24c-0.01-0.05-0.05-0.1-0.08-0.15c-0.09-0.16-0.17-0.32-0.27-0.5
		c0.12-0.05,0.21-0.11,0.29-0.1c0.09,0.01,0.21,0.06,0.26,0.13c0.13,0.18,0.22,0.39,0.33,0.58c0.18-0.01,0.12-0.11,0.09-0.21
		c-0.14-0.37-0.14-0.37,0.25-0.47c0.01,0,0.02,0,0.04,0.01c0.15,0.29,0.24,0.36,0.41,0.29c-0.13-0.27-0.26-0.54-0.4-0.8
		c-0.03-0.05-0.09-0.07-0.14-0.11c-0.03,0.06-0.09,0.13-0.09,0.19c0,0.08,0.05,0.17,0.08,0.26c-0.23,0.1-0.42,0.13-0.61-0.03
		c-0.05-0.04-0.15-0.04-0.21-0.02c-0.17,0.08-0.33,0.19-0.5,0.26C13.8,22.21,13.69,22.26,13.7,22.42z M23.69,16.61
		c-0.84,0.32-1.68,0.63-2.5,0.94c-0.01,0.2,0.1,0.25,0.26,0.23c0.07-0.01,0.14-0.03,0.2-0.06c0.63-0.23,1.26-0.47,1.89-0.71
		C23.81,16.9,23.82,16.89,23.69,16.61z M12.42,23.77c-0.02-0.01-0.03-0.01-0.05-0.02c-0.14,0.08-0.29,0.16-0.43,0.24
		c-0.1-0.17-0.13-0.28,0.06-0.36c0.13-0.05,0.28-0.13,0.33-0.23c0.09-0.18,0.24-0.16,0.36-0.21c0.14,0.24,0.27,0.47,0.4,0.7
		c0.07-0.03,0.13-0.05,0.19-0.08c-0.16-0.26-0.31-0.5-0.45-0.74c0.08-0.1,0.28-0.15,0.14-0.34c-0.04,0.04-0.07,0.07-0.1,0.1
		c-0.2,0.15-0.4,0.29-0.6,0.43c-0.19,0.13-0.37,0.27-0.56,0.41c-0.14,0.11-0.14,0.19-0.07,0.29c0.12,0.18,0.26,0.36,0.4,0.53
		c0.13,0.15,0.47,0.13,0.58-0.03c0.04-0.06,0.04-0.15,0.08-0.28c-0.16,0.1-0.27,0.18-0.38,0.24C12.06,24.16,12.27,23.97,12.42,23.77
		z M19.49,19.84c-0.1-0.01-0.16-0.03-0.22-0.03c-0.36-0.03-0.57,0.23-0.45,0.57c0.04,0.12,0.09,0.24,0.14,0.36
		c0.1,0.28,0.34,0.31,0.56,0.17c0.3-0.19,0.31-0.34,0.06-0.61c-0.02-0.03-0.04-0.07-0.04-0.1C19.52,20.08,19.51,19.96,19.49,19.84z
		 M22.45,20.26c-0.02-0.37-0.06-0.67-0.06-0.97c0-0.16-0.08-0.26-0.24-0.21c-0.06,0.02-0.12,0.04-0.17,0.06
		c0.01,0.04,0.01,0.06,0.01,0.06c0.26,0.18,0.14,0.49,0.26,0.73c0.01,0.03-0.01,0.08-0.03,0.11c-0.09,0.14-0.34,0.22-0.53,0.16
		c-0.15-0.05-0.27-0.24-0.28-0.4c-0.01-0.14-0.06-0.28-0.1-0.42c-0.01-0.02-0.08-0.02-0.18-0.05c0.09,0.39,0.17,0.72,0.26,1.1
		c0.22-0.05,0.39-0.1,0.56-0.14c0.06-0.01,0.11-0.04,0.17-0.04C22.25,20.25,22.37,20.26,22.45,20.26z M23.77,18.98
		c0.04,0.35,0.07,0.67,0.11,0.98c0.2,0,0.17-0.08,0.15-0.19c-0.02-0.08,0-0.21,0.05-0.25c0.08-0.06,0.23-0.11,0.31-0.08
		c0.09,0.04,0.2,0.2,0.18,0.27c-0.04,0.16,0.06,0.18,0.15,0.24c0.02-0.08,0.07-0.16,0.06-0.23c-0.02-0.24-0.05-0.49-0.08-0.73
		c-0.01-0.04-0.05-0.07-0.08-0.11c-0.03,0.03-0.07,0.06-0.09,0.09c-0.04,0.11-0.07,0.23-0.11,0.37c-0.13-0.04-0.26-0.04-0.33-0.1
		c-0.07-0.07-0.09-0.2-0.13-0.32C23.89,18.94,23.83,18.96,23.77,18.98z M23.52,19.03c-0.06-0.03-0.11-0.08-0.16-0.09
		c-0.31-0.05-0.59,0.15-0.69,0.46c-0.14,0.42,0.22,0.7,0.52,0.7c0.15,0,0.32-0.07,0.45-0.15c0.16-0.1,0.07-0.26,0.01-0.37
		c-0.05-0.09-0.15-0.19-0.28-0.04c0.05,0.09,0.11,0.18,0.19,0.33c-0.16,0.02-0.29,0.05-0.42,0.04c-0.24,0-0.23-0.23-0.28-0.37
		c-0.07-0.18,0.16-0.42,0.36-0.42C23.32,19.13,23.45,19.17,23.52,19.03z M16.89,21.45c0.03-0.01,0.06-0.03,0.09-0.04
		c0.09,0.07,0.18,0.16,0.28,0.22c0.06,0.04,0.15,0.03,0.23,0.04c-0.03-0.05-0.06-0.11-0.1-0.16c-0.03-0.04-0.08-0.07-0.12-0.08
		c-0.17-0.03-0.18-0.12-0.14-0.26c0.07-0.21-0.15-0.5-0.34-0.45c-0.13,0.04-0.26,0.1-0.41,0.15c0.12,0.31,0.22,0.59,0.33,0.87
		c0.02,0.05,0.1,0.07,0.17,0.11C16.89,21.68,16.89,21.57,16.89,21.45z M15.5,21.33c0.14,0.28,0.28,0.56,0.42,0.85
		c0.08,0.16,0.17,0.2,0.31,0.09c0.12-0.1,0.24-0.2,0.37-0.31c-0.08-0.12-0.16-0.04-0.23,0.03c-0.14,0.14-0.24,0.14-0.43-0.03
		c-0.04-0.03,0.01-0.18,0.04-0.26c0.02-0.05,0.1-0.07,0.11-0.08c-0.08-0.05-0.23-0.09-0.25-0.16c-0.08-0.26,0.21-0.21,0.31-0.32
		c-0.01-0.19-0.12-0.14-0.21-0.09C15.81,21.12,15.68,21.21,15.5,21.33z M18.24,21.28c0.01-0.02,0.01-0.03,0.02-0.05
		c-0.09,0-0.18,0.01-0.26-0.01c-0.09-0.02-0.16-0.08-0.24-0.12c0.04-0.08,0.07-0.17,0.13-0.22c0.07-0.06,0.18-0.07,0.27-0.11
		c-0.18-0.22-0.35,0-0.52-0.01c-0.19-0.3,0.21-0.3,0.29-0.5c-0.13,0.03-0.23,0.03-0.29,0.08c-0.08,0.05-0.18,0.14-0.19,0.22
		c-0.02,0.36,0.15,0.66,0.37,0.94c0.02,0.02,0.09,0.03,0.12,0.01C18.03,21.44,18.13,21.36,18.24,21.28z M26.38,17.14
		c0.05,0.04,0.1,0.07,0.12,0.11c0.15,0.28-0.04,0.58-0.37,0.58c-0.08,0-0.15,0.04-0.23,0.06c0,0.02,0.01,0.05,0.01,0.07
		c0.1,0,0.2,0,0.31,0c0.18-0.01,0.38-0.1,0.54,0.17c0.02-0.23,0.03-0.39,0.06-0.55c0.04-0.22-0.18-0.48-0.4-0.45
		C26.39,17.12,26.38,17.14,26.38,17.14z M19.71,19.71c0.06,0.23,0.12,0.46,0.19,0.72c0.23-0.17,0.42-0.31,0.61-0.45
		c-0.01-0.02-0.03-0.04-0.04-0.06c-0.1,0.04-0.2,0.09-0.3,0.11c-0.19,0.04-0.15-0.12-0.2-0.23c0.16-0.06,0.3-0.11,0.46-0.17
		c-0.05-0.06-0.08-0.1-0.11-0.14C20.12,19.56,19.94,19.62,19.71,19.71z M25.46,19.86c0.01-0.21,0.02-0.4,0.03-0.6
		c0.01-0.16,0-0.33,0.21-0.38c-0.17-0.12-0.49-0.1-0.61,0.01c0.18,0.15,0.25,0.44,0.18,0.68c-0.02,0.08,0.02,0.19,0.06,0.28
		C25.33,19.88,25.42,19.86,25.46,19.86z M24.48,11.6c0.02,0.09,0.09,0.21,0.08,0.31c-0.03,0.21,0.07,0.32,0.23,0.39
		c0.07,0.03,0.17-0.01,0.25-0.01c-0.02-0.07-0.02-0.17-0.07-0.22C24.81,11.9,24.64,11.75,24.48,11.6z M11.87,24.93
		c-0.09-0.03-0.2-0.07-0.31-0.11c-0.19-0.06-0.23-0.25-0.35-0.37c-0.04-0.04-0.09-0.07-0.14-0.07c-0.03,0-0.11,0.04-0.1,0.06
		c0,0.05,0.02,0.11,0.06,0.15c0.09,0.1,0.2,0.18,0.29,0.27C11.56,25.08,11.62,25.09,11.87,24.93z M12.89,18.37
		c-0.03,0.05-0.09,0.11-0.07,0.14c0.06,0.12,0.12,0.28,0.23,0.35c0.17,0.11,0.22,0.28,0.33,0.42c0.06,0.07,0.13,0.15,0.19,0.22
		c0.02-0.01,0.04-0.03,0.06-0.04c-0.11-0.17-0.21-0.35-0.33-0.52C13.18,18.76,13.05,18.59,12.89,18.37z M25.23,12.23
		c0.06,0,0.15,0.01,0.24-0.01c0.14-0.03,0.16-0.14,0.06-0.24c-0.11-0.1-0.22-0.19-0.33-0.29C25.21,11.84,25.22,12.01,25.23,12.23z
		 M26.7,18.8c0.15-0.17,0.17-0.3-0.02-0.61C26.51,18.31,26.52,18.54,26.7,18.8z M27.78,12.46c0.06,0.14,0.05,0.33,0.28,0.24
		c0.09-0.04,0.18-0.08,0.12-0.21C28.13,12.37,27.99,12.36,27.78,12.46z M20.62,20.62c0.01-0.02,0.01-0.04,0.02-0.06
		c-0.05-0.02-0.12-0.08-0.15-0.06c-0.18,0.08-0.35,0.07-0.54-0.01c0.03,0.09,0.06,0.15,0.08,0.22c0.08-0.02,0.19-0.07,0.23-0.04
		C20.41,20.78,20.51,20.65,20.62,20.62z M12.76,18.19c-0.14-0.18-0.29-0.36-0.45-0.56C12.32,17.85,12.57,18.2,12.76,18.19z M5.65,21
		c-0.08,0.05-0.2,0.09-0.21,0.14c-0.01,0.08,0.05,0.17,0.09,0.26C5.74,21.33,5.76,21.27,5.65,21z M24.22,11.83
		c-0.2,0.09-0.22,0.2-0.06,0.42C24.28,12.14,24.37,12.01,24.22,11.83z M12.01,17.34c0.01-0.01,0.02-0.02,0.03-0.04
		c-0.02-0.06-0.04-0.13-0.08-0.19c-0.02-0.03-0.06-0.04-0.1-0.06c-0.02,0.04-0.07,0.11-0.05,0.12
		C11.87,17.23,11.94,17.28,12.01,17.34z M20.48,15.77c-0.19,0.17-0.08,0.28,0.02,0.4C20.5,16.04,20.49,15.92,20.48,15.77z
		 M10.07,23.91c0.03,0.03,0.06,0.06,0.09,0.09c0.07-0.08,0.15-0.16,0.22-0.24c-0.02-0.02-0.04-0.04-0.06-0.06
		C10.23,23.76,10.15,23.84,10.07,23.91z M13.69,19.74c0.08,0.08,0.13,0.14,0.22,0.22c0-0.08,0.02-0.15-0.01-0.2
		c-0.03-0.05-0.1-0.09-0.15-0.14C13.72,19.68,13.7,19.72,13.69,19.74z M11.75,16.94c0.02-0.02,0.04-0.03,0.06-0.05
		c-0.05-0.05-0.1-0.11-0.14-0.16c-0.02,0.01-0.03,0.03-0.05,0.04C11.66,16.83,11.71,16.89,11.75,16.94z"/>
	<path class="st1" d="M6.21,14.65c0.23,0.01,0.24,0,0.19-0.21c-0.05-0.2,0.04-0.36,0.25-0.4c0.16,0.14,0.11,0.31,0.09,0.48
		c-0.02,0.26-0.05,0.53-0.08,0.79c-0.01,0.04-0.09,0.11-0.11,0.11c-0.21-0.09-0.38,0.04-0.54,0.12c-0.27,0.12-0.45,0.03-0.54-0.25
		c-0.05-0.15-0.1-0.31-0.17-0.45c-0.04-0.08-0.1-0.17-0.18-0.2c-0.14-0.06-0.21-0.13-0.14-0.27c0.08-0.16,0.21-0.19,0.35-0.07
		c0.08,0.06,0.11,0.17,0.18,0.24c0.05,0.06,0.13,0.14,0.19,0.14c0.12,0,0.07-0.11,0.07-0.19c0.01-0.16-0.01-0.29-0.15-0.41
		c-0.06-0.05-0.09-0.19-0.08-0.28c0.01-0.09,0.05-0.21,0.19-0.19c0.19,0.03,0.39,0.22,0.32,0.33c-0.09,0.16,0.01,0.27,0.05,0.39
		C6.12,14.44,6.17,14.55,6.21,14.65z"/>
	<path class="st1" d="M24.15,8.44c-0.12,0.05-0.25,0.1-0.37,0.16c-0.12,0.05-0.26,0.07-0.34,0.22c-0.07,0.14-0.31,0.11-0.41-0.01
		c-0.12-0.14-0.24-0.28-0.36-0.42c-0.07-0.07-0.17-0.12-0.24-0.19c-0.05-0.05-0.12-0.14-0.1-0.19c0.02-0.07,0.09-0.16,0.16-0.19
		c0.05-0.02,0.16,0.01,0.2,0.05c0.09,0.09,0.16,0.21,0.23,0.32c0.21-0.03,0.24-0.06,0.15-0.25c-0.08-0.18-0.17-0.35-0.27-0.51
		c-0.11-0.17-0.1-0.35,0.03-0.42c0.16-0.08,0.36,0,0.35,0.18c-0.01,0.26,0.09,0.45,0.3,0.64c0.04-0.05,0.12-0.1,0.13-0.16
		c0.02-0.13,0.01-0.26,0.02-0.39c0.01-0.07,0.03-0.18,0.08-0.21c0.06-0.03,0.17-0.02,0.22,0.02c0.04,0.03,0.04,0.15,0.02,0.2
		c-0.1,0.18-0.06,0.36-0.01,0.54C23.99,8.04,24.07,8.24,24.15,8.44C24.14,8.44,24.15,8.44,24.15,8.44z"/>
	<path class="st1" d="M10.2,9.21c0.03,0.08,0.03,0.15,0.07,0.17c0.19,0.12,0.16,0.27,0.05,0.42c-0.11,0.15-0.27,0.09-0.4,0.04
		C9.75,9.79,9.59,9.69,9.43,9.61C9.4,9.59,9.36,9.56,9.33,9.57C9.19,9.58,9.06,9.58,9.01,9.42C8.97,9.31,8.94,9.18,8.95,9.06
		c0.02-0.44,0.27-0.72,0.66-0.88c0.13-0.05,0.23-0.04,0.33,0.09c0.09,0.12,0.21,0.23,0.34,0.31c0.05,0.03,0.18,0,0.23-0.04
		c0.1-0.09,0.22-0.09,0.29-0.01c0.04,0.05,0.02,0.17,0,0.26C10.71,9.07,10.46,9.14,10.2,9.21z M9.52,9.03
		c0.04,0.02,0.07,0.04,0.11,0.06C9.67,9.02,9.72,8.96,9.76,8.9C9.7,8.87,9.65,8.84,9.59,8.81C9.57,8.88,9.54,8.96,9.52,9.03z"/>
	<path class="st1" d="M17.7,7.77c-0.32,0.17-0.46,0.12-0.58-0.21c-0.02-0.06-0.04-0.12-0.06-0.18c-0.12-0.33-0.27-0.41-0.61-0.28
		c-0.14,0.06-0.28,0.09-0.39-0.03C16,7,15.91,6.92,15.91,6.85c0-0.06,0.08-0.14,0.15-0.2c0.05-0.04,0.13-0.06,0.19-0.08
		c0.29-0.08,0.49-0.29,0.72-0.47c0.23-0.18,0.53-0.12,0.64,0.15c0.12,0.29,0.12,0.57,0.06,0.87C17.62,7.33,17.68,7.55,17.7,7.77z"/>
	<path class="st1" d="M11.08,6.83c0.03-0.01,0.08-0.02,0.12-0.04c0.1-0.04,0.18-0.07,0.24,0.07c0.05,0.12,0.02,0.2-0.08,0.28
		c-0.12,0.1-0.22,0.22-0.33,0.33c0.01,0.02,0.03,0.04,0.04,0.06c0.22-0.12,0.44-0.24,0.67-0.37c0.05,0.07,0.1,0.12,0.12,0.18
		c0.02,0.05,0.03,0.14,0,0.17c-0.2,0.19-0.41,0.37-0.63,0.54c-0.13,0.1-0.28,0.08-0.42-0.04c-0.19-0.16-0.38-0.32-0.57-0.47
		c-0.16-0.12-0.15-0.47,0.02-0.59c0.15-0.11,0.36-0.2,0.43-0.35c0.1-0.19,0.27-0.18,0.4-0.25c0.04-0.02,0.12-0.01,0.14,0.01
		c0.03,0.05,0.06,0.13,0.04,0.17C11.22,6.63,11.15,6.72,11.08,6.83z"/>
	<path class="st1" d="M15.85,5.78c-0.15,0.01-0.3,0.04-0.45,0.02c-0.17-0.02-0.29,0-0.31,0.2c-0.02,0.18-0.04,0.37-0.08,0.55
		c-0.02,0.06-0.11,0.14-0.17,0.15c-0.09,0.02-0.21,0.01-0.28-0.03c-0.04-0.03-0.03-0.15-0.04-0.24c-0.01-0.22,0.11-0.46-0.03-0.67
		c-0.04-0.05-0.13-0.08-0.2-0.09c-0.1-0.01-0.2,0.01-0.3,0.01c-0.15,0.01-0.16-0.09-0.14-0.19c0.06-0.25,0.07-0.25,0.45-0.21
		c0.33,0.03,0.65,0.04,0.98,0.08c0.14,0.02,0.28,0.05,0.41,0.11c0.08,0.04,0.12,0.14,0.18,0.21C15.87,5.71,15.86,5.74,15.85,5.78z"
		/>
	<path class="st1" d="M12.23,6.38c-0.05-0.14-0.12-0.28-0.15-0.42c-0.02-0.09,0.01-0.22,0.07-0.29c0.03-0.04,0.17-0.03,0.25,0
		c0.22,0.09,0.34,0.33,0.31,0.55c-0.02,0.16,0.15,0.31,0.31,0.25c0.13-0.05,0.26-0.12,0.4-0.03c0.05,0.03,0.13,0.06,0.13,0.09
		c-0.01,0.07-0.03,0.19-0.07,0.21c-0.27,0.12-0.55,0.22-0.83,0.3c-0.05,0.01-0.17-0.11-0.22-0.2C12.33,6.71,12.29,6.54,12.23,6.38
		C12.23,6.38,12.23,6.38,12.23,6.38z"/>
	<path class="st1" d="M19.27,20.84c-0.04-0.12-0.08-0.22-0.13-0.35c0.12-0.04,0.23-0.09,0.34-0.13
		C19.67,20.61,19.6,20.78,19.27,20.84z"/>
	<path class="st1" d="M18.96,20.04c0.18-0.01,0.31-0.03,0.42,0c0.05,0.01-0.07,0.24-0.17,0.27C19.01,20.37,19.04,20.2,18.96,20.04z"
		/>
	<path class="st1" d="M16.93,20.86c0,0.14,0,0.25-0.01,0.35c0,0.02-0.09,0.05-0.11,0.03c-0.08-0.07-0.14-0.15-0.23-0.25
		C16.71,20.95,16.78,20.92,16.93,20.86z"/>
</g>
<g class="st0">
	<path class="st1" d="M60.83,43.71c0.08,0.02,0.17,0.04,0.25,0.07c0.26,0.11,0.54,0.21,0.78,0.35c0.26,0.16,0.47,0.38,0.57,0.68
		c0.02,0,0.04,0.01,0.05,0.01c0.04-0.15,0.09-0.31,0.11-0.46c0.04-0.36,0.4-0.75,0.75-0.72c0.24,0.02,0.5,0.1,0.7,0.23
		c0.15,0.09,0.26,0.29,0.31,0.46c0.1,0.33,0.21,0.68,0.2,1.02c-0.01,0.24,0.07,0.43,0.14,0.63c0.03,0.08,0.12,0.13,0.17,0.21
		c0.04,0.05,0.06,0.11,0.08,0.16c-0.14,0.08-0.48,0.05-0.6-0.04c-0.18-0.13-0.37-0.25-0.54-0.39c-0.12-0.1-0.21-0.24-0.32-0.35
		c-0.1-0.09-0.21-0.17-0.32-0.25c-0.02-0.14-0.07-0.28-0.05-0.42c0.02-0.15,0.08-0.31,0.15-0.44c0.06-0.12,0.16-0.21,0.24-0.32
		c0.01-0.01,0-0.05-0.01-0.07c-0.07-0.1-0.34-0.11-0.39,0c-0.07,0.15-0.14,0.31-0.17,0.47c-0.02,0.09,0.02,0.19,0.05,0.28
		c0.06,0.17,0.12,0.34,0.19,0.51c0.09,0.15,0.2,0.28,0.26,0.44c0.15,0.42,0.54,0.52,0.88,0.7c0.09,0.05,0.16,0.12,0.22,0.2
		c0.24,0.27,0.51,0.54,0.72,0.83c0.13,0.18,0.18,0.41,0.24,0.63c0.02,0.05-0.05,0.15-0.1,0.2c-0.08,0.08-0.18,0.13-0.28,0.19
		c-0.2,0.13-0.36,0.32-0.38,0.56c-0.01,0.12,0.07,0.29,0.16,0.35c0.27,0.19,0.35,0.44,0.2,0.72c-0.06,0.12-0.13,0.25-0.16,0.38
		c-0.02,0.1,0.02,0.21,0.05,0.31c0.02,0.09,0.07,0.18,0.11,0.3c-0.2,0.07-0.39,0.15-0.58,0.22c0,0.02,0,0.05,0.01,0.07
		c0.08,0.01,0.17,0.03,0.25,0.01c0.24-0.05,0.49-0.11,0.72-0.19c0.17-0.06,0.32-0.15,0.48-0.23c0.03-0.02,0.07-0.04,0.1-0.06
		c0.31-0.15,0.63-0.28,0.94-0.45c0.19-0.1,0.36-0.26,0.55-0.37c0.24-0.15,0.5-0.28,0.75-0.42c0.11,0.16,0.14,0.27,0.02,0.42
		c-0.13,0.16-0.19,0.38-0.3,0.56c-0.13,0.2-0.27,0.39-0.42,0.56c-0.18,0.21-0.38,0.41-0.57,0.61c-0.15,0.15-0.3,0.31-0.46,0.45
		c-0.15,0.14-0.32,0.26-0.48,0.4c-0.02,0.02-0.01,0.09-0.01,0.11c0.62,0.13,1.21,0.25,1.83,0.37c-0.23,0.3-0.49,0.46-0.79,0.59
		c-0.25,0.11-0.46,0.28-0.69,0.42c-0.04,0.03-0.1,0.04-0.15,0.05c-0.15,0.03-0.3,0.05-0.44,0.08c-0.24,0.04-0.48,0.09-0.73,0.12
		c-0.35,0.04-0.7,0.07-1.05,0.09c-0.17,0.01-0.35,0.01-0.52-0.03c-0.08-0.02-0.12-0.16-0.22-0.26c-0.02,0.21-0.04,0.41-0.05,0.62
		c-0.01,0.27,0.04,0.56-0.02,0.82c-0.04,0.18-0.12,0.39-0.36,0.48c-0.29,0.11-0.58,0.09-0.87,0.12c-0.11,0.01-0.21,0.04-0.32,0.05
		c-0.31,0.04-0.62,0.08-0.93,0.11c-0.19,0.02-0.38,0.01-0.57,0.03c-0.14,0.01-0.29,0.04-0.43,0.07c-0.19,0.04-0.38,0.09-0.58,0.12
		c-0.18,0.03-0.36,0.05-0.55,0.08c-0.21,0.03-0.43,0.05-0.64,0.09c-0.31,0.06-0.62,0.12-0.92,0.21c-0.51,0.14-1.03,0.29-1.53,0.47
		c-0.42,0.14-0.84,0.32-1.25,0.49c-0.38,0.16-0.76,0.32-1.12,0.51c-0.23,0.12-0.43,0.29-0.66,0.43c-0.17,0.1-0.35,0.19-0.51,0.29
		c-0.2,0.13-0.4,0.27-0.59,0.4c-0.1,0.07-0.2,0.13-0.3,0.19c-0.24,0.17-0.49,0.33-0.73,0.51c-0.12,0.09-0.22,0.21-0.34,0.3
		c-0.1,0.08-0.2,0.15-0.3,0.22c-0.12,0.08-0.29,0.12-0.36,0.23c-0.17,0.25-0.45,0.25-0.68,0.36c-0.13,0.06-0.46-0.03-0.57-0.13
		c-0.2-0.19-0.41-0.36-0.61-0.55c-0.12-0.12-0.22-0.26-0.34-0.39c-0.04-0.04-0.1-0.06-0.14-0.1c-0.2-0.19-0.4-0.37-0.58-0.57
		c-0.13-0.14-0.13-0.29,0.06-0.42c-0.1-0.03-0.17-0.04-0.24-0.07c-0.24-0.1-0.27-0.4-0.07-0.57c0.03-0.03,0.06-0.07,0.07-0.12
		c0-0.01-0.06-0.06-0.08-0.06c-0.05,0.02-0.12,0.04-0.14,0.08c-0.15,0.26-0.21,0.54-0.02,0.81c0.09,0.12,0.2,0.23,0.3,0.34
		c0.1,0.12,0.2,0.24,0.31,0.35c0.13,0.14,0.27,0.27,0.41,0.41c0.2,0.19,0.18,0.31-0.01,0.52c-0.21,0.24-0.46,0.43-0.69,0.64
		c-0.22,0.2-0.47,0.35-0.68,0.55c-0.13,0.12-0.25,0.22-0.41,0.25c-0.25,0.05-0.51,0.07-0.76,0.12c-0.13,0.02-0.24,0.07-0.37,0.1
		c-0.06,0.01-0.15,0.01-0.17-0.02c-0.03-0.06-0.06-0.17-0.03-0.22c0.14-0.26,0.31-0.5,0.47-0.75c0.07-0.11,0.15-0.22,0.22-0.34
		c0.08-0.13,0.03-0.24-0.13-0.25c-0.32-0.02-0.64-0.01-0.96-0.03c-0.25-0.02-0.49-0.08-0.74-0.11c-0.11-0.01-0.23,0.02-0.33-0.01
		c-0.24-0.05-0.46-0.13-0.7-0.18c-0.24-0.06-0.49-0.1-0.76-0.15c0.09-0.19,0.17-0.34,0.39-0.25c0.02,0.01,0.05,0,0.08,0
		c0.28-0.08,0.57-0.15,0.85-0.23c0.5-0.15,1.01-0.3,1.51-0.49c0.22-0.08,0.4-0.25,0.63-0.4c-0.25-0.08-0.24-0.09-0.36-0.31
		c-0.13-0.23-0.34-0.39-0.6-0.47c-0.1-0.03-0.21-0.07-0.27-0.14c-0.05-0.05-0.06-0.17-0.05-0.25c0.05-0.31-0.09-0.7-0.38-0.83
		c-0.13-0.06-0.33-0.05-0.46,0c-0.21,0.08-0.42,0.06-0.53-0.08c-0.11-0.15-0.22-0.34-0.16-0.57c0.03-0.12-0.02-0.27-0.03-0.41
		c-0.01-0.23-0.01-0.46-0.02-0.69c0-0.09-0.02-0.19-0.03-0.28c0.22-0.24,0.35-0.51,0.24-0.86c-0.06-0.2-0.01-0.43-0.06-0.63
		c-0.05-0.2-0.05-0.43-0.27-0.56c-0.08-0.05-0.13-0.15-0.19-0.22c-0.24-0.27-0.52-0.25-0.77,0.11c0.17-0.01,0.29-0.03,0.42-0.03
		c0.05,0,0.11,0,0.14,0.03c0.11,0.1,0.21,0.2,0.29,0.31c0.06,0.08,0.08,0.19,0.12,0.29c0.16,0.37,0.08,0.73,0.03,1.11
		c-0.04,0.26-0.17,0.47-0.23,0.71c-0.01,0.02-0.09,0.05-0.11,0.04c-0.11-0.08-0.17-0.17-0.16-0.32c0-0.1-0.07-0.21-0.13-0.3
		c-0.05-0.09-0.13-0.16-0.19-0.25c-0.12-0.18-0.24-0.37-0.36-0.56c-0.12-0.18-0.26-0.36-0.34-0.56c-0.04-0.1,0.01-0.25,0.06-0.36
		c0.09-0.2,0.2-0.39,0.31-0.58c0.02-0.03,0.06-0.07,0.09-0.08c0.08-0.04,0.17-0.06,0.25-0.1c0.29-0.14,0.54-0.03,0.77,0.15
		c0.11,0.08,0.21,0.18,0.32,0.28c0.01-0.04,0.05-0.1,0.04-0.13c-0.08-0.26-0.02-0.52,0.02-0.78c0.04-0.25,0.14-0.48,0.22-0.72
		c0.02-0.05,0.09-0.09,0.14-0.11c0.33-0.1,0.67-0.2,1-0.29c0.06-0.02,0.14,0,0.2,0.03c0.13,0.06,0.24,0.16,0.38,0.22
		c0.11,0.04,0.24,0.07,0.36,0.06c0.21-0.02,0.21,0.14,0.23,0.24c0.01,0.07-0.06,0.19-0.12,0.23c-0.09,0.06-0.22,0.05-0.33,0.08
		c-0.08,0.03-0.16,0.07-0.24,0.11c0.01,0.03,0.01,0.06,0.02,0.1c0.1,0,0.21-0.01,0.3,0.02c0.08,0.03,0.22,0.12,0.21,0.16
		c-0.03,0.1-0.11,0.2-0.18,0.28c-0.02,0.02-0.08,0-0.13,0c-0.01,0.15,0.1,0.17,0.2,0.2c0.09,0.03,0.19,0.05,0.3,0.08
		c0.05-0.14,0.09-0.28,0.15-0.42c0.03-0.07,0.11-0.11,0.15-0.18c0.17-0.29,0.28-0.59,0.32-0.94c0.02-0.22,0.03-0.44,0.04-0.67
		c0.01-0.34-0.06-0.66-0.18-0.97c-0.14-0.37-0.29-0.74-0.41-1.11c-0.11-0.34-0.23-0.68-0.3-1.03c-0.06-0.29-0.06-0.6-0.07-0.9
		c-0.01-0.27-0.02-0.54,0-0.81c0.02-0.23,0.09-0.46,0.14-0.69c0.06-0.29,0.1-0.58,0.17-0.86c0.04-0.15,0.13-0.28,0.2-0.43
		c0.08-0.16,0.15-0.32,0.22-0.48c0.1-0.21,0.2-0.42,0.31-0.63c0.11-0.2,0.23-0.41,0.37-0.6c0.16-0.23,0.35-0.44,0.53-0.65
		c0.11-0.13,0.24-0.25,0.37-0.37c0.24-0.22,0.47-0.43,0.78-0.56c0.22-0.1,0.46-0.18,0.64-0.33c0.45-0.38,1.01-0.47,1.53-0.67
		c0.29-0.11,0.63-0.12,0.94-0.17c0.14-0.02,0.27-0.05,0.41-0.06c0.25-0.01,0.49-0.04,0.74-0.02c0.35,0.04,0.7,0.1,1.05,0.18
		c0.35,0.08,0.71,0.14,1.04,0.34c0.19,0.11,0.43,0.13,0.63,0.23c0.27,0.14,0.51,0.31,0.77,0.47c0.15,0.09,0.32,0.17,0.46,0.27
		c0.12,0.09,0.22,0.21,0.33,0.31c0.25,0.25,0.51,0.49,0.76,0.76c0.11,0.12,0.18,0.28,0.27,0.41c0.1,0.14,0.2,0.27,0.3,0.41
		c0.05,0.07,0.1,0.13,0.14,0.2c0.23,0.54,0.43,1.1,0.71,1.6c0.15,0.27,0.27,0.56,0.42,0.83c0.16,0.3,0.4,0.55,0.67,0.77
		c0.28,0.23,0.59,0.4,0.95,0.49c0.07,0.02,0.15,0.1,0.21,0.08c0.1-0.02,0.23,0.08,0.29-0.09c0.03-0.09,0.1-0.18,0.14-0.29
		c-0.22,0.05-0.45,0.16-0.52-0.15c-0.06-0.23,0.17-0.26,0.3-0.34c0-0.12-0.06-0.18-0.17-0.12c-0.13,0.08-0.33,0.04-0.37,0.25
		c-0.01,0.06-0.34-0.03-0.39-0.12c-0.07-0.12-0.09-0.24,0.05-0.35c0.09-0.07,0.14-0.2,0.19-0.32c0.07-0.15,0.12-0.33,0.21-0.46
		c0.08-0.12,0.21-0.2,0.34-0.28c0.11-0.07,0.24-0.11,0.36-0.14C60.78,43.95,60.84,43.86,60.83,43.71
		C60.83,43.71,60.83,43.71,60.83,43.71z M62.31,48.7c0.09,0.05,0.19,0.1,0.28,0.16c0.05,0.03,0.13,0.07,0.14,0.12
		c0.12,0.48,0.45,0.83,0.76,1.18c0.23,0.26,0.17,0.56-0.15,0.69c-0.14,0.06-0.22,0.15-0.26,0.29c-0.04,0.17-0.09,0.33-0.14,0.51
		c0.24-0.02,0.5-0.08,0.75-0.05c0.16,0.02,0.3-0.14,0.48-0.02c0.06,0.04,0.19-0.05,0.09-0.21c-0.11,0.04-0.21,0.1-0.32,0.11
		c-0.1,0.01-0.25,0-0.3-0.07c-0.09-0.12-0.12-0.28-0.19-0.47c0.14-0.01,0.23-0.01,0.33-0.01c0.09,0,0.17,0.02,0.26,0
		c0.21-0.05,0.29-0.44,0.11-0.61c-0.1-0.09-0.24-0.16-0.33-0.26c-0.15-0.17-0.42-0.21-0.5-0.46c-0.02-0.06-0.1-0.1-0.15-0.15
		c-0.06-0.06-0.14-0.12-0.17-0.19c-0.09-0.2-0.16-0.41-0.23-0.59C62.59,48.69,62.45,48.7,62.31,48.7c-0.03-0.01-0.05-0.04-0.08-0.05
		c-0.23-0.06-0.48-0.09-0.68-0.19c-0.16-0.08-0.28-0.05-0.39,0.02c-0.11,0.08-0.18,0.21-0.29,0.29c-0.23,0.16-0.47,0.32-0.72,0.45
		c-0.2,0.11-0.27,0.22-0.19,0.43c0.41,1.1,0.83,2.21,1.24,3.31c0.07,0.19,0.23,0.28,0.41,0.32c0.11,0.02,0.23,0.02,0.34,0.02
		c0.13,0,0.25-0.02,0.42-0.04c-0.18-0.13-0.3-0.14-0.5-0.11c-0.34,0.05-0.69-0.08-0.54-0.53c0.04-0.13,0.1-0.13,0.2-0.1
		c0.05,0.02,0.11,0,0.17,0.01c0-0.02,0-0.03,0-0.05c-0.21-0.06-0.36-0.23-0.36-0.45c0-0.2,0.19-0.22,0.32-0.27
		c0.06-0.03,0.12-0.06,0.18-0.07c0.15-0.02,0.29-0.03,0.44-0.03c0.14,0,0.27,0.01,0.45,0.01c-0.1-0.06-0.16-0.12-0.21-0.13
		c-0.26-0.01-0.53-0.01-0.79-0.02c-0.04,0-0.1-0.04-0.11-0.07c-0.03-0.11-0.05-0.23-0.07-0.35c-0.03-0.16,0.1-0.16,0.2-0.16
		c0.1,0,0.2,0.04,0.3,0.05c0.47,0.05,0.74-0.3,0.56-0.74c-0.04-0.09-0.15-0.16-0.2-0.25c-0.14-0.27-0.29-0.54-0.4-0.83
		C61.89,48.87,61.97,48.75,62.31,48.7z M56.36,42.94c-0.09,0.19-0.16,0.37-0.25,0.54c-0.08,0.16-0.14,0.36-0.27,0.48
		c-0.16,0.15-0.36,0.25-0.56,0.34c-0.15,0.07-0.35,0.13-0.5,0.1c-0.3-0.07-0.59-0.19-0.87-0.32c-0.25-0.12-0.48-0.28-0.73-0.41
		c-0.32-0.16-0.64-0.34-0.98-0.46c-0.34-0.11-0.7-0.2-1.05-0.2c-0.43,0-0.86,0.1-1.26,0.29c-0.13,0.06-0.28,0.09-0.39,0.17
		c-0.21,0.15-0.41,0.32-0.6,0.49c-0.17,0.16-0.35,0.32-0.47,0.52c-0.16,0.27-0.27,0.58-0.41,0.86c-0.05,0.1-0.13,0.18-0.2,0.27
		c-0.05,0.07-0.12,0.14-0.13,0.22c-0.06,0.31-0.08,0.64-0.17,0.95c-0.08,0.25-0.24,0.45-0.48,0.6c-0.21,0.13-0.42,0.2-0.65,0.23
		c-0.29,0.04-0.56-0.04-0.81-0.18c-0.15-0.08-0.3-0.16-0.44-0.24c-0.02,0.01-0.03,0.02-0.05,0.03c0.03,0.14,0.04,0.29,0.09,0.42
		c0.82,2.21,1.65,4.41,2.47,6.61c0.12,0.33,0.28,0.36,0.58,0.27c0.23-0.07,0.45-0.16,0.67-0.25c0.2-0.08,0.25-0.17,0.14-0.35
		c-0.12-0.21-0.26-0.41-0.4-0.62c-0.08-0.11-0.17-0.21-0.25-0.32c-0.12-0.16-0.23-0.33-0.34-0.49c-0.07-0.1-0.1-0.21-0.22-0.28
		c-0.12-0.07-0.16-0.25-0.25-0.37c-0.09-0.13-0.19-0.26-0.31-0.36c-0.21-0.2-0.19-0.57,0.04-0.75c0.04-0.03,0.08-0.09,0.08-0.12
		c-0.02-0.13,0.07-0.14,0.15-0.18c0.4-0.2,0.83-0.29,1.26-0.32c0.34-0.03,0.66-0.15,1.02-0.13c0.3,0.02,0.61-0.1,0.91-0.15
		c0.03-0.01,0.07,0.01,0.11,0.01c0.08,0,0.17-0.01,0.25-0.01c0-0.02,0-0.04-0.01-0.06c-0.24-0.11-0.33-0.23-0.33-0.42
		c0-0.06-0.05-0.13-0.08-0.19c-0.06,0.03-0.14,0.05-0.19,0.1c-0.13,0.14-0.25,0.3-0.37,0.45c-0.05-0.17-0.06-0.32-0.06-0.47
		c-0.01-0.27-0.03-0.54-0.03-0.81c0-0.2,0.01-0.4,0.03-0.6c0.01-0.12-0.12-0.39-0.25-0.45c-0.19-0.08-0.39-0.17-0.59-0.24
		c-0.16-0.06-0.32-0.08-0.48-0.14c-0.18-0.07-0.35-0.16-0.58-0.27c0.13-0.06,0.19-0.1,0.26-0.13c0.42-0.16,0.85-0.32,1.27-0.48
		c0.18-0.07,0.27-0.19,0.27-0.38c0-0.23,0.01-0.46,0.01-0.69c0-0.23-0.01-0.46-0.01-0.69c0-0.17,0-0.35,0-0.57
		c0.09,0.06,0.16,0.08,0.21,0.14c0.15,0.19,0.3,0.39,0.45,0.58c0.08,0.1,0.16,0.18,0.24,0.28c0.09,0.11,0.19,0.21,0.26,0.33
		c0.13,0.22,0.35,0.35,0.61,0.24c0.39-0.17,0.8-0.3,1.2-0.45c0.06-0.02,0.13-0.05,0.21-0.08c0,0.07,0.01,0.11,0,0.14
		c-0.16,0.29-0.32,0.57-0.5,0.85c-0.1,0.16-0.22,0.3-0.33,0.46c-0.02,0.03-0.04,0.09-0.03,0.13c0.03,0.29,0.21,0.52,0.37,0.75
		c0.09,0.13,0.21,0.23,0.31,0.35c0.12,0.13,0.24,0.26,0.34,0.41c0.1,0.14,0.19,0.3,0.28,0.45c-0.01,0.02-0.03,0.04-0.04,0.05
		c-0.32-0.09-0.64-0.18-1.01-0.28c0.14,0.37,0.25,0.69,0.38,0.99c0.05,0.11,0.17,0.13,0.25,0.04c0.24-0.24,0.46-0.49,0.76-0.65
		c0.12-0.07,0.29-0.12,0.34-0.23c0.1-0.2,0.3-0.22,0.44-0.33c0.25-0.2,0.57-0.31,0.83-0.51c0.25-0.19,0.56-0.3,0.86-0.42
		c0.1-0.04,0.25-0.06,0.35-0.02c0.24,0.1,0.47,0.23,0.51,0.54c0.03,0.25,0.1,0.5,0.13,0.75c0.03,0.28,0.03,0.56,0.05,0.84
		c0.02,0.24,0.07,0.47,0.1,0.71c0.01,0.12,0,0.25,0.02,0.38c0.02,0.21,0.06,0.42,0.08,0.64c0.02,0.2,0.15,0.37,0.29,0.31
		c0.15-0.06,0.29-0.15,0.45-0.22c0.23-0.09,0.45-0.21,0.69-0.25c0.26-0.05,0.35-0.13,0.25-0.37c-0.35-0.88-0.7-1.75-1.04-2.63
		c-0.53-1.37-1.04-2.75-1.57-4.12C56.61,43.35,56.47,43.14,56.36,42.94z M48.97,40.44c-0.58,0.21-1.15,0.42-1.6,0.88
		c-0.19,0.19-0.42,0.35-0.62,0.54c-0.14,0.13-0.26,0.28-0.38,0.43c-0.18,0.22-0.35,0.44-0.52,0.66c-0.01,0.01-0.01,0.03-0.02,0.05
		c-0.09,0.21-0.19,0.41-0.28,0.62c-0.12,0.26-0.26,0.51-0.34,0.77c-0.08,0.25-0.08,0.51-0.12,0.77c-0.01,0.07-0.02,0.15-0.03,0.22
		c-0.03,0.25-0.12,0.5-0.08,0.74c0.06,0.33,0.18,0.65,0.47,0.88c0.28,0.23,0.59,0.23,0.91,0.22c0.42,0,0.81-0.32,0.89-0.73
		c0.07-0.35,0.11-0.71,0.18-1.06c0.05-0.23,0.1-0.47,0.2-0.68c0.14-0.28,0.2-0.6,0.45-0.83c0.17-0.16,0.26-0.39,0.43-0.54
		c0.25-0.22,0.53-0.43,0.83-0.6c0.44-0.24,0.93-0.37,1.44-0.41c0.01,0,0.02,0.01,0.04,0.01c0.22,0,0.44-0.02,0.65,0.01
		c0.29,0.03,0.59,0.06,0.86,0.16c0.29,0.1,0.53,0.31,0.81,0.43c0.38,0.17,0.61,0.52,0.94,0.74c0.2,0.13,0.42,0.31,0.64,0.33
		c0.49,0.05,0.86-0.23,1.12-0.64c0.09-0.15,0.14-0.34,0.15-0.52c0.01-0.2,0-0.43-0.1-0.59c-0.07-0.12-0.12-0.28-0.29-0.37
		c-0.21-0.12-0.35-0.35-0.54-0.51c-0.18-0.15-0.37-0.29-0.57-0.42c-0.26-0.17-0.52-0.37-0.8-0.49c-0.37-0.16-0.77-0.29-1.16-0.38
		c-0.36-0.09-0.73-0.15-1.1-0.16c-0.34-0.02-0.67,0.04-1.01,0.07c-0.37,0.03-0.73,0.1-1.08,0.24
		C49.22,40.35,49.09,40.39,48.97,40.44z M47.44,58.55c0.01,0.02,0.03,0.03,0.04,0.05c0.16-0.11,0.33-0.22,0.46-0.35
		c0.06-0.06,0.11-0.21,0.08-0.29c-0.37-1.09-0.75-2.18-1.13-3.26c-0.07-0.21-0.23-0.31-0.45-0.23c-0.35,0.14-0.72,0.11-1.08,0.13
		c-0.17,0.01-0.37,0.05-0.44,0.28c-0.03,0.11-0.12,0.2-0.17,0.3c-0.02,0.04-0.03,0.12-0.01,0.15c0.1,0.11,0.22,0.19,0.32,0.3
		c0.07,0.08,0.12,0.18,0.15,0.28c0.03,0.11,0.02,0.23,0.03,0.34c0.02,0.16,0.06,0.31,0.06,0.47c0.01,0.24,0.1,0.38,0.33,0.42
		c0.27,0.05,0.48-0.04,0.65-0.24c0.16-0.19,0.28-0.22,0.48-0.1c0.11,0.07,0.13,0.2,0.04,0.29c-0.06,0.06-0.12,0.13-0.18,0.2
		c0.11,0.07,0.18,0.14,0.27,0.16c0.17,0.04,0.16,0.18,0.15,0.28c-0.03,0.16-0.1,0.3-0.15,0.45c0.15-0.1,0.26-0.24,0.39-0.36
		c0.06-0.06,0.16-0.12,0.23-0.11c0.2,0.04,0.29,0.22,0.28,0.39c0,0.1-0.14,0.19-0.23,0.29C47.55,58.45,47.49,58.5,47.44,58.55z
		 M59.73,50.34c0.02-0.01,0.04-0.03,0.07-0.04c-0.02-0.05-0.04-0.1-0.06-0.15c-0.67-1.78-1.33-3.57-2-5.35
		c-0.26-0.69-0.57-1.37-0.85-2.05c-0.01-0.03-0.02-0.08-0.04-0.08c-0.19-0.07-0.18-0.26-0.27-0.4c-0.09-0.15-0.18-0.35-0.32-0.41
		c-0.29-0.12-0.41-0.38-0.62-0.57c-0.22-0.2-0.43-0.42-0.66-0.6c-0.22-0.16-0.47-0.28-0.71-0.41c-0.26-0.15-0.51-0.35-0.83-0.35
		c-0.02,0-0.04-0.03-0.06-0.04c-0.17-0.05-0.34-0.11-0.52-0.15c-0.26-0.06-0.54-0.09-0.8-0.16c-0.34-0.1-0.69-0.12-1.04-0.1
		c-0.3,0.01-0.6,0.07-0.9,0.11c-0.11,0.01-0.22,0.03-0.34,0.04c-0.36,0.05-0.74,0.04-1.07,0.21c-0.07,0.04-0.15,0.07-0.22,0.11
		c-0.09,0.06-0.17,0.14-0.27,0.2c-0.28,0.16-0.56,0.32-0.84,0.47c-0.15,0.08-0.3,0.13-0.41,0.28c-0.11,0.16-0.29,0.28-0.43,0.42
		c-0.17,0.17-0.32,0.36-0.46,0.57c-0.18,0.28-0.45,0.51-0.63,0.78c-0.11,0.16-0.14,0.37-0.21,0.56c0.02,0.01,0.04,0.02,0.07,0.04
		c0.04-0.03,0.09-0.06,0.12-0.1c0.1-0.18,0.18-0.37,0.29-0.54c0.13-0.2,0.28-0.4,0.44-0.58c0.17-0.21,0.36-0.4,0.54-0.6
		c0.18-0.18,0.4-0.31,0.59-0.49c0.2-0.2,0.49-0.34,0.75-0.47c0.32-0.15,0.67-0.25,1-0.38c0.12-0.05,0.27-0.05,0.31-0.22
		c0.01-0.04,0.15-0.09,0.19-0.07c0.15,0.08,0.26-0.01,0.38-0.04c0.17-0.04,0.35-0.07,0.52-0.09c0.11-0.02,0.23-0.04,0.34-0.03
		c0.28,0.01,0.55,0.06,0.83,0.06c0.31,0,0.62-0.02,0.92,0.1c0.13,0.05,0.28,0.05,0.42,0.1c0.17,0.05,0.34,0.11,0.51,0.18
		c0.17,0.07,0.33,0.14,0.49,0.22c0.19,0.09,0.39,0.16,0.56,0.28c0.18,0.13,0.33,0.3,0.5,0.45c0.2,0.17,0.42,0.31,0.62,0.48
		c0.09,0.07,0.15,0.2,0.25,0.25c0.15,0.07,0.23,0.18,0.3,0.32c0.06,0.12,0.12,0.27,0.22,0.35c0.23,0.17,0.32,0.43,0.43,0.67
		c0.31,0.68,0.59,1.38,0.86,2.08c0.61,1.6,1.21,3.2,1.82,4.8C59.54,50.1,59.65,50.22,59.73,50.34z M52.04,47.45
		c0,0,0.01-0.03,0.02-0.06c0.02-0.05,0.05-0.09,0.07-0.14c0.04,0.05,0.08,0.09,0.11,0.14c0.04,0.08,0.06,0.16,0.09,0.24
		c0.08,0.17,0.26,0.24,0.44,0.12c-0.19-0.23-0.37-0.48-0.58-0.68c-0.23-0.22-0.34-0.54-0.21-0.77c0.13-0.23,0.27-0.46,0.39-0.69
		c0.02-0.04,0-0.1,0-0.18c-0.31,0.12-0.59,0.22-0.87,0.33c-0.21,0.08-0.36,0.02-0.46-0.18c-0.07-0.13-0.14-0.27-0.24-0.39
		c-0.13-0.15-0.27-0.29-0.44-0.46c-0.02,0.03-0.05,0.08-0.06,0.14c-0.02,0.11-0.02,0.22-0.02,0.33c0,0.22-0.01,0.44,0.02,0.65
		c0.03,0.23-0.02,0.37-0.24,0.46c-0.27,0.1-0.55,0.2-0.82,0.31c-0.06,0.02-0.11,0.05-0.16,0.07c0,0.02,0,0.04,0,0.06
		c0.31,0.11,0.62,0.24,0.94,0.33c0.12,0.04,0.19,0.09,0.24,0.2c0.14,0.29,0.03,0.59,0.07,0.88c0.03,0.17,0.04,0.34,0.06,0.51
		c0.02,0,0.04,0.01,0.06,0.01c0.06-0.07,0.12-0.15,0.17-0.22c0.1-0.15,0.17-0.32,0.28-0.45c0.11-0.12,0.14-0.21,0.06-0.35
		c-0.13-0.25-0.26-0.51-0.38-0.77c-0.12-0.26,0-0.5,0.13-0.72c0.02-0.03,0.16-0.04,0.2-0.01c0.16,0.12,0.3,0.25,0.44,0.4
		c0.15,0.17,0.32,0.33,0.32,0.59c0,0.11,0.02,0.23,0.03,0.34C51.82,47.49,51.91,47.48,52.04,47.45z M53.91,54.55
		c-0.2,0.11-0.38,0.24-0.57,0.33c-0.45,0.21-0.9,0.4-1.36,0.6c-0.05,0.02-0.11,0.06-0.14,0.11c-0.14,0.23-0.62,0.28-0.79,0.08
		c-0.07-0.08-0.14-0.15-0.23-0.25c-0.01,0.06-0.02,0.09-0.01,0.11c0.06,0.2,0.26,0.34,0.23,0.62c0.25-0.14,0.48-0.27,0.71-0.39
		c0.25-0.13,0.5-0.26,0.75-0.36c0.48-0.2,0.97-0.35,1.41-0.64c0.15-0.1,0.38-0.05,0.57-0.11c0.58-0.18,1.13-0.48,1.74-0.56
		c0.18-0.03,0.36-0.08,0.54-0.12c0.09-0.02,0.17-0.06,0.3-0.11c-0.08-0.04-0.11-0.08-0.14-0.07c-0.19,0.04-0.36,0.12-0.58,0.1
		c-0.2-0.02-0.41,0.08-0.61,0.13c-0.42,0.12-0.83,0.25-1.24,0.38c-0.25,0.08-0.33,0.04-0.42-0.2c-0.51-1.37-1.03-2.74-1.54-4.12
		c-0.11-0.29-0.09-0.36,0.15-0.55c0.03-0.03,0.07-0.05,0.1-0.07c-0.13-0.35-0.26-0.69-0.39-1.03c0.03,0.21,0.11,0.4,0.17,0.59
		c0.11,0.32,0.03,0.61-0.3,0.76c-0.05,0.02-0.1,0.05-0.12,0.06C52.73,51.41,53.32,52.98,53.91,54.55z M47.48,54.71
		c-0.02-0.05-0.03-0.11-0.05-0.16c-0.7-1.88-1.42-3.76-2.11-5.65c-0.2-0.54-0.49-1.05-0.54-1.64c-0.02-0.2-0.04-0.4-0.05-0.6
		c-0.01-0.22-0.01-0.45-0.01-0.67c0-0.24-0.04-0.48-0.01-0.73c0.05-0.31,0.16-0.59,0.26-0.88c0.05-0.15,0.12-0.35-0.04-0.55
		c-0.07,0.12-0.15,0.22-0.18,0.32c-0.08,0.33-0.14,0.66-0.2,1c-0.02,0.13-0.01,0.26-0.01,0.4c-0.01,0.32-0.02,0.63-0.02,0.95
		c0,0.18,0.03,0.36,0.06,0.54c0.02,0.2,0.02,0.41,0.08,0.59c0.61,1.72,1.31,3.41,1.84,5.15c0.03,0.09,0.06,0.18,0.1,0.27
		c0.04,0.1,0.1,0.19,0.14,0.29c0.1,0.22,0.21,0.44,0.29,0.67c0.07,0.19,0.1,0.4,0.16,0.59C47.24,54.76,47.33,54.81,47.48,54.71z
		 M43.6,53.8c0.21,0.28,0.02,0.53-0.03,0.79c-0.02,0.11-0.1,0.16-0.25,0.11c-0.13-0.05-0.29-0.05-0.43-0.05
		c-0.08,0-0.16,0.05-0.23,0.08c0.01-0.08,0.03-0.17,0.01-0.23c-0.1-0.28-0.2-0.56-0.31-0.84c-0.01-0.03-0.07-0.05-0.11-0.05
		c-0.02,0-0.06,0.06-0.06,0.09c0,0.09-0.01,0.19,0.03,0.27c0.12,0.25,0.05,0.52,0.1,0.77c0.06,0.3-0.15,0.51-0.2,0.77
		c-0.04,0.19-0.02,0.38,0.1,0.54c0.1,0.13,0.21,0.11,0.29-0.05c0.13-0.28,0.22-0.57,0.44-0.8c0.15-0.16,0.28-0.32,0.48-0.41
		c0.26-0.12,0.55-0.19,0.71-0.46c0.01-0.02,0.07-0.02,0.1-0.02c0.08,0,0.21,0.03,0.23-0.01c0.05-0.08,0.06-0.19,0.06-0.29
		c0.01-0.1-0.01-0.2-0.01-0.3c0.1,0.01,0.15,0.01,0.19,0.02c0.05,0.01,0.11,0.01,0.17,0.02c-0.11-0.25-0.33-0.42-0.42-0.38
		c-0.03,0.12-0.06,0.21-0.1,0.35c-0.13-0.15-0.22-0.26-0.31-0.36c0.02,0.12,0.05,0.23,0.11,0.34c0.05,0.11,0.06,0.21-0.01,0.32
		c-0.06,0.09-0.03,0.26-0.22,0.21C43.8,54.09,43.86,53.85,43.6,53.8z M48.41,57.74c0.41-0.03,0.62-0.27,0.88-0.45
		c0.1-0.07,0.22-0.13,0.32-0.2c0.16-0.11,0.3-0.24,0.46-0.34c0.19-0.12,0.4-0.21,0.59-0.31c0.12-0.06,0.16-0.25,0.05-0.31
		c-0.09-0.05-0.22-0.08-0.31-0.05c-0.14,0.04-0.26,0.15-0.39,0.22c-0.04,0.02-0.08,0.03-0.13,0.04c-0.09,0.01-0.18,0.01-0.26,0.03
		c-0.49,0.13-0.94,0.38-1.37,0.64c-0.05,0.03-0.1,0.16-0.08,0.22C48.23,57.4,48.33,57.58,48.41,57.74z M46.25,52.96
		c-0.03-0.09-0.05-0.14-0.07-0.18c-0.1-0.27-0.2-0.55-0.31-0.82c-0.02-0.06-0.18-0.12-0.2-0.1c-0.1,0.09-0.2,0.19-0.26,0.31
		c-0.1,0.2-0.14,0.42-0.25,0.61c-0.13,0.24-0.19,0.45-0.06,0.72c0.18,0.37,0.41,0.47,0.78,0.26c-0.02-0.24-0.04-0.48-0.07-0.75
		C45.95,53,46.09,52.98,46.25,52.96z M63.33,46.67c-0.03-0.14-0.04-0.26-0.09-0.36c-0.2-0.37-0.41-0.73-0.61-1.1
		c-0.15,0.04-0.11,0.08-0.05,0.17c0.09,0.14,0.17,0.29,0.19,0.45c0.05,0.31,0.12,0.59,0.32,0.84c0.04,0.04,0.03,0.14,0.01,0.2
		c-0.01,0.03-0.09,0.05-0.14,0.06c-0.07,0.02-0.14,0.03-0.19,0.04c-0.01,0.1,0,0.18-0.03,0.25c-0.03,0.06-0.1,0.1-0.15,0.15
		c0.13,0.09,0.25,0.13,0.33-0.06c0.01-0.03,0.08-0.06,0.11-0.06c0.12,0.01,0.24,0.03,0.35,0.06c0.3,0.1,0.6,0.21,0.91,0.31
		c0.03-0.06,0.05-0.12,0.09-0.17c0.08-0.13,0.04-0.2-0.09-0.26c-0.03-0.01-0.06-0.04-0.08-0.06C63.98,46.87,63.72,46.61,63.33,46.67
		z M59.24,47.76c0.14,0.01,0.27,0.01,0.39,0.03c0.05,0.01,0.1,0.05,0.14,0.09c0.07,0.09,0.15,0.18,0.19,0.28
		c0.05,0.13,0.17,0.16,0.25,0.13c0.1-0.03,0.24-0.12,0.27-0.21c0.11-0.34-0.06-0.82-0.5-0.9c-0.1-0.02-0.22-0.06-0.29-0.13
		c-0.19-0.16-0.39-0.29-0.66-0.32c-0.02,0.09-0.09,0.19-0.06,0.27C59.04,47.25,59.15,47.5,59.24,47.76z M45.41,58.44
		c0.14-0.1,0.24-0.17,0.34-0.24c0.16-0.12,0.16-0.27,0.01-0.4c-0.2-0.17-0.43-0.2-0.67-0.13c-0.22,0.07-0.26,0.05-0.35-0.17
		c-0.1-0.24-0.16-0.47-0.09-0.73c0.07-0.27-0.09-0.51-0.18-0.75c-0.02-0.05-0.09-0.08-0.14-0.11c-0.01,0.06-0.05,0.12-0.04,0.18
		c0.03,0.15,0.1,0.3,0.11,0.46c0.01,0.2-0.02,0.4-0.03,0.6c0,0.13,0.04,0.29-0.01,0.4c-0.1,0.2-0.05,0.36,0.02,0.54
		c0.12,0.28,0.3,0.33,0.53,0.14c0.05-0.04,0.08-0.09,0.12-0.14c0.07-0.1,0.17-0.1,0.22,0.01C45.33,58.18,45.35,58.28,45.41,58.44z
		 M60.89,53.19c-0.06-0.16-0.11-0.3-0.17-0.44c-0.06-0.14-0.14-0.21-0.31-0.15c-0.78,0.3-1.56,0.59-2.35,0.88
		c-0.05,0.02-0.09,0.05-0.14,0.07c0,0.02,0.01,0.04,0.01,0.07c0.09,0,0.19,0,0.28-0.01c0.11-0.01,0.22-0.03,0.34-0.06
		c0.17-0.04,0.34-0.1,0.53-0.07c0.15,0.02,0.31-0.05,0.46-0.07c0.14-0.02,0.28-0.07,0.41-0.05C60.28,53.41,60.57,53.33,60.89,53.19z
		 M59.96,50.74c-0.13,0.05-0.24,0.09-0.35,0.13c-0.57,0.21-1.14,0.43-1.71,0.64c-0.18,0.07-0.16,0.19-0.12,0.33
		c0.04,0.18,0.14,0.13,0.26,0.1c0.18-0.06,0.36-0.09,0.54-0.14c0.06-0.02,0.12-0.04,0.18-0.07c0.14-0.07,0.27-0.16,0.41-0.22
		c0.24-0.1,0.5-0.19,0.75-0.28c0.14-0.05,0.18-0.14,0.13-0.28C60.02,50.89,60,50.83,59.96,50.74z M47.63,55.57
		c0.5-0.17,0.98-0.33,1.45-0.5c0.13-0.05,0.25-0.12,0.38-0.19c0.11-0.06,0.2-0.15,0.11-0.26c-0.08-0.09-0.14-0.25-0.33-0.17
		c-0.45,0.18-0.91,0.35-1.36,0.52c-0.13,0.05-0.26,0.1-0.41,0.15C47.52,55.27,47.56,55.4,47.63,55.57z M50.29,55.79
		c-0.09-0.37-0.13-0.39-0.45-0.27c-0.61,0.23-1.21,0.46-1.82,0.68c-0.14,0.05-0.18,0.15-0.13,0.28c0.05,0.14,0.16,0.14,0.28,0.1
		c0.25-0.1,0.51-0.19,0.76-0.29C49.38,56.13,49.83,55.96,50.29,55.79z M50.39,57.69c0.14-0.05,0.26-0.03,0.33,0.12
		c0.06,0.13,0.13,0.26,0.22,0.38c0.06,0.07,0.16,0.11,0.25,0.17c0-0.08,0-0.16-0.02-0.24c-0.01-0.05-0.05-0.1-0.08-0.15
		c-0.09-0.16-0.17-0.32-0.27-0.5c0.12-0.05,0.21-0.11,0.29-0.1c0.09,0.01,0.21,0.06,0.26,0.13c0.13,0.18,0.22,0.39,0.33,0.58
		c0.18-0.01,0.12-0.11,0.09-0.21c-0.14-0.37-0.14-0.37,0.25-0.47c0.01,0,0.02,0,0.04,0.01c0.15,0.29,0.24,0.36,0.41,0.29
		c-0.13-0.27-0.26-0.54-0.4-0.8c-0.03-0.05-0.09-0.07-0.14-0.11c-0.03,0.06-0.09,0.13-0.09,0.19c0,0.08,0.05,0.17,0.08,0.26
		c-0.23,0.1-0.42,0.13-0.61-0.03c-0.05-0.04-0.15-0.04-0.21-0.02c-0.17,0.08-0.33,0.19-0.5,0.26
		C50.49,57.48,50.38,57.53,50.39,57.69z M60.38,51.88c-0.84,0.32-1.68,0.63-2.5,0.94c-0.01,0.2,0.1,0.25,0.26,0.23
		c0.07-0.01,0.14-0.03,0.2-0.06c0.63-0.23,1.26-0.47,1.89-0.71C60.5,52.18,60.5,52.16,60.38,51.88z M49.11,59.05
		c-0.02-0.01-0.03-0.01-0.05-0.02c-0.14,0.08-0.29,0.16-0.43,0.24c-0.1-0.17-0.13-0.28,0.06-0.36c0.13-0.05,0.28-0.13,0.33-0.23
		c0.09-0.18,0.24-0.16,0.36-0.21c0.14,0.24,0.27,0.47,0.4,0.7c0.07-0.03,0.13-0.05,0.19-0.08c-0.16-0.26-0.31-0.5-0.45-0.74
		c0.08-0.1,0.28-0.15,0.14-0.34c-0.04,0.04-0.07,0.07-0.1,0.1c-0.2,0.15-0.4,0.29-0.6,0.43c-0.19,0.13-0.37,0.27-0.56,0.41
		c-0.14,0.11-0.14,0.19-0.07,0.29c0.12,0.18,0.26,0.36,0.4,0.53c0.13,0.15,0.47,0.13,0.58-0.03c0.04-0.06,0.04-0.15,0.08-0.28
		c-0.16,0.1-0.27,0.18-0.38,0.24C48.75,59.43,48.96,59.24,49.11,59.05z M56.18,55.12c-0.1-0.01-0.16-0.03-0.22-0.03
		c-0.36-0.03-0.57,0.23-0.45,0.57c0.04,0.12,0.09,0.24,0.14,0.36c0.1,0.28,0.34,0.31,0.56,0.17c0.3-0.19,0.31-0.34,0.06-0.61
		c-0.02-0.03-0.04-0.07-0.04-0.1C56.2,55.35,56.19,55.23,56.18,55.12z M59.14,55.54c-0.02-0.37-0.06-0.67-0.06-0.97
		c0-0.16-0.08-0.26-0.24-0.21c-0.06,0.02-0.12,0.04-0.17,0.06c0.01,0.04,0.01,0.06,0.01,0.06c0.26,0.18,0.14,0.49,0.26,0.73
		c0.01,0.03-0.01,0.08-0.03,0.11c-0.09,0.14-0.34,0.22-0.53,0.16c-0.15-0.05-0.27-0.24-0.28-0.4c-0.01-0.14-0.06-0.28-0.1-0.42
		c-0.01-0.02-0.08-0.02-0.18-0.05c0.09,0.39,0.17,0.72,0.26,1.1c0.22-0.05,0.39-0.1,0.56-0.14c0.06-0.01,0.11-0.04,0.17-0.04
		C58.94,55.53,59.05,55.53,59.14,55.54z M60.46,54.26c0.04,0.35,0.07,0.67,0.11,0.98c0.2,0,0.17-0.08,0.15-0.19
		c-0.02-0.08,0-0.21,0.05-0.25c0.08-0.06,0.23-0.11,0.31-0.08c0.09,0.04,0.2,0.2,0.18,0.27c-0.04,0.16,0.06,0.18,0.15,0.24
		c0.02-0.08,0.07-0.16,0.06-0.23c-0.02-0.24-0.05-0.49-0.08-0.73c-0.01-0.04-0.05-0.07-0.08-0.11c-0.03,0.03-0.07,0.06-0.09,0.09
		c-0.04,0.11-0.07,0.23-0.11,0.37c-0.13-0.04-0.26-0.04-0.33-0.1c-0.07-0.07-0.09-0.2-0.13-0.32
		C60.58,54.21,60.52,54.23,60.46,54.26z M60.21,54.3c-0.06-0.03-0.11-0.08-0.16-0.09c-0.31-0.05-0.59,0.15-0.69,0.46
		c-0.14,0.42,0.22,0.7,0.52,0.7c0.15,0,0.32-0.07,0.45-0.15c0.16-0.1,0.07-0.26,0.01-0.37c-0.05-0.09-0.15-0.19-0.28-0.04
		c0.05,0.09,0.11,0.18,0.19,0.33c-0.16,0.02-0.29,0.05-0.42,0.04c-0.24,0-0.23-0.23-0.28-0.37c-0.07-0.18,0.16-0.42,0.36-0.42
		C60.01,54.41,60.14,54.44,60.21,54.3z M53.58,56.72c0.03-0.01,0.06-0.03,0.09-0.04c0.09,0.07,0.18,0.16,0.28,0.22
		c0.06,0.04,0.15,0.03,0.23,0.04c-0.03-0.05-0.06-0.11-0.1-0.16c-0.03-0.04-0.08-0.07-0.12-0.08c-0.17-0.03-0.18-0.12-0.14-0.26
		c0.07-0.21-0.15-0.5-0.34-0.45c-0.13,0.04-0.26,0.1-0.41,0.15c0.12,0.31,0.22,0.59,0.33,0.87c0.02,0.05,0.1,0.07,0.17,0.11
		C53.58,56.96,53.58,56.84,53.58,56.72z M52.19,56.6c0.14,0.28,0.28,0.56,0.42,0.85c0.08,0.16,0.17,0.2,0.31,0.09
		c0.12-0.1,0.24-0.2,0.37-0.31c-0.08-0.12-0.16-0.04-0.23,0.03c-0.14,0.14-0.24,0.14-0.43-0.03c-0.04-0.03,0.01-0.18,0.04-0.26
		c0.02-0.05,0.1-0.07,0.11-0.08c-0.08-0.05-0.23-0.09-0.25-0.16c-0.08-0.26,0.21-0.21,0.31-0.32c-0.01-0.19-0.12-0.14-0.21-0.09
		C52.5,56.39,52.36,56.49,52.19,56.6z M54.92,56.56c0.01-0.02,0.01-0.03,0.02-0.05c-0.09,0-0.18,0.01-0.26-0.01
		c-0.09-0.02-0.16-0.08-0.24-0.12c0.04-0.08,0.07-0.17,0.13-0.22c0.07-0.06,0.18-0.07,0.27-0.11c-0.18-0.22-0.35,0-0.52-0.01
		c-0.19-0.3,0.21-0.3,0.29-0.5c-0.13,0.03-0.23,0.03-0.29,0.08c-0.08,0.05-0.18,0.14-0.19,0.22c-0.02,0.36,0.15,0.66,0.37,0.94
		c0.02,0.02,0.09,0.03,0.12,0.01C54.72,56.71,54.82,56.63,54.92,56.56z M63.06,52.42c0.05,0.04,0.1,0.07,0.12,0.11
		c0.15,0.28-0.04,0.58-0.37,0.58c-0.08,0-0.15,0.04-0.23,0.06c0,0.02,0.01,0.05,0.01,0.07c0.1,0,0.2,0,0.31,0
		c0.18-0.01,0.38-0.1,0.54,0.17c0.02-0.23,0.03-0.39,0.06-0.55c0.04-0.22-0.18-0.48-0.4-0.45C63.08,52.4,63.07,52.41,63.06,52.42z
		 M56.4,54.98c0.06,0.23,0.12,0.46,0.19,0.72c0.23-0.17,0.42-0.31,0.61-0.45c-0.01-0.02-0.03-0.04-0.04-0.06
		c-0.1,0.04-0.2,0.09-0.3,0.11c-0.19,0.04-0.15-0.12-0.2-0.23c0.16-0.06,0.3-0.11,0.46-0.17c-0.05-0.06-0.08-0.1-0.11-0.14
		C56.81,54.83,56.63,54.9,56.4,54.98z M62.15,55.14c0.01-0.21,0.02-0.4,0.03-0.6c0.01-0.16,0-0.33,0.21-0.38
		c-0.17-0.12-0.49-0.1-0.61,0.01c0.18,0.15,0.25,0.44,0.18,0.68c-0.02,0.08,0.02,0.19,0.06,0.28
		C62.01,55.15,62.11,55.14,62.15,55.14z M61.17,46.88c0.02,0.09,0.09,0.21,0.08,0.31c-0.03,0.21,0.07,0.32,0.23,0.39
		c0.07,0.03,0.17-0.01,0.25-0.01c-0.02-0.07-0.02-0.17-0.07-0.22C61.5,47.17,61.33,47.03,61.17,46.88z M48.56,60.2
		c-0.09-0.03-0.2-0.07-0.31-0.11c-0.19-0.06-0.23-0.25-0.35-0.37c-0.04-0.04-0.09-0.07-0.14-0.07c-0.03,0-0.11,0.04-0.1,0.06
		c0,0.05,0.02,0.11,0.06,0.15c0.09,0.1,0.2,0.18,0.29,0.27C48.25,60.36,48.31,60.36,48.56,60.2z M49.58,53.65
		c-0.03,0.05-0.09,0.11-0.07,0.14c0.06,0.12,0.12,0.28,0.23,0.35c0.17,0.11,0.22,0.28,0.33,0.42c0.06,0.07,0.13,0.15,0.19,0.22
		c0.02-0.01,0.04-0.03,0.06-0.04c-0.11-0.17-0.21-0.35-0.33-0.52C49.87,54.03,49.74,53.86,49.58,53.65z M61.92,47.5
		c0.06,0,0.15,0.01,0.24-0.01c0.14-0.03,0.16-0.14,0.06-0.24c-0.11-0.1-0.22-0.19-0.33-0.29C61.9,47.12,61.91,47.28,61.92,47.5z
		 M63.39,54.07c0.15-0.17,0.17-0.3-0.02-0.61C63.2,53.58,63.21,53.82,63.39,54.07z M64.47,47.74c0.06,0.14,0.05,0.33,0.28,0.24
		c0.09-0.04,0.18-0.08,0.12-0.21C64.82,47.64,64.68,47.63,64.47,47.74z M57.31,55.9c0.01-0.02,0.01-0.04,0.02-0.06
		c-0.05-0.02-0.12-0.08-0.15-0.06c-0.18,0.08-0.35,0.07-0.54-0.01c0.03,0.09,0.06,0.15,0.08,0.22c0.08-0.02,0.19-0.07,0.23-0.04
		C57.1,56.05,57.19,55.92,57.31,55.9z M49.45,53.46c-0.14-0.18-0.29-0.36-0.45-0.56C49.01,53.12,49.26,53.47,49.45,53.46z
		 M42.34,56.28c-0.08,0.05-0.2,0.09-0.21,0.14c-0.01,0.08,0.05,0.17,0.09,0.26C42.43,56.61,42.45,56.55,42.34,56.28z M60.91,47.11
		c-0.2,0.09-0.22,0.2-0.06,0.42C60.96,47.41,61.06,47.28,60.91,47.11z M48.69,52.61c0.01-0.01,0.02-0.02,0.03-0.04
		c-0.02-0.06-0.04-0.13-0.08-0.19c-0.02-0.03-0.06-0.04-0.1-0.06c-0.02,0.04-0.07,0.11-0.05,0.12
		C48.55,52.5,48.63,52.56,48.69,52.61z M57.17,51.04c-0.19,0.17-0.08,0.28,0.02,0.4C57.19,51.32,57.18,51.19,57.17,51.04z
		 M46.76,59.18c0.03,0.03,0.06,0.06,0.09,0.09c0.07-0.08,0.15-0.16,0.22-0.24c-0.02-0.02-0.04-0.04-0.06-0.06
		C46.92,59.04,46.84,59.11,46.76,59.18z M50.37,55.02c0.08,0.08,0.13,0.14,0.22,0.22c0-0.08,0.02-0.15-0.01-0.2
		c-0.03-0.05-0.1-0.09-0.15-0.14C50.4,54.95,50.39,54.99,50.37,55.02z M48.44,52.21c0.02-0.02,0.04-0.03,0.06-0.05
		c-0.05-0.05-0.1-0.11-0.14-0.16c-0.02,0.01-0.03,0.03-0.05,0.04C48.35,52.1,48.39,52.16,48.44,52.21z"/>
	<path class="st1" d="M42.9,49.93c0.23,0.01,0.24,0,0.19-0.21c-0.05-0.2,0.04-0.36,0.25-0.4c0.16,0.14,0.11,0.31,0.09,0.48
		c-0.02,0.26-0.05,0.53-0.08,0.79c-0.01,0.04-0.09,0.11-0.11,0.11c-0.21-0.09-0.38,0.04-0.54,0.12c-0.27,0.12-0.45,0.03-0.54-0.25
		c-0.05-0.15-0.1-0.31-0.17-0.45c-0.04-0.08-0.1-0.17-0.18-0.2c-0.14-0.06-0.21-0.13-0.14-0.27c0.08-0.16,0.21-0.19,0.35-0.07
		c0.08,0.06,0.11,0.17,0.18,0.24c0.05,0.06,0.13,0.14,0.19,0.14c0.12,0,0.07-0.11,0.07-0.19c0.01-0.16-0.01-0.29-0.15-0.41
		c-0.06-0.05-0.09-0.19-0.08-0.28c0.01-0.09,0.05-0.21,0.19-0.19c0.19,0.03,0.39,0.22,0.32,0.33c-0.09,0.16,0.01,0.27,0.05,0.39
		C42.81,49.71,42.86,49.82,42.9,49.93z"/>
	<path class="st1" d="M60.83,43.71c-0.12,0.05-0.25,0.1-0.37,0.16c-0.12,0.05-0.26,0.07-0.34,0.22c-0.07,0.14-0.31,0.11-0.41-0.01
		c-0.12-0.14-0.24-0.28-0.36-0.42c-0.07-0.07-0.17-0.12-0.24-0.19c-0.05-0.05-0.12-0.14-0.1-0.19c0.02-0.07,0.09-0.16,0.16-0.19
		c0.05-0.02,0.16,0.01,0.2,0.05c0.09,0.09,0.16,0.21,0.23,0.32c0.21-0.03,0.24-0.06,0.15-0.25c-0.08-0.18-0.17-0.35-0.27-0.51
		c-0.11-0.17-0.1-0.35,0.03-0.42c0.16-0.08,0.36,0,0.35,0.18c-0.01,0.26,0.09,0.45,0.3,0.64c0.04-0.05,0.12-0.1,0.13-0.16
		c0.02-0.13,0.01-0.26,0.02-0.39c0.01-0.07,0.03-0.18,0.08-0.21c0.06-0.03,0.17-0.02,0.22,0.02c0.04,0.03,0.04,0.15,0.02,0.2
		c-0.1,0.18-0.06,0.36-0.01,0.54C60.68,43.31,60.76,43.51,60.83,43.71C60.83,43.71,60.83,43.71,60.83,43.71z"/>
	<path class="st1" d="M46.89,44.49c0.03,0.08,0.03,0.15,0.07,0.17c0.19,0.12,0.16,0.27,0.05,0.42c-0.11,0.15-0.27,0.09-0.4,0.04
		c-0.17-0.06-0.33-0.16-0.49-0.24c-0.03-0.02-0.07-0.04-0.1-0.04c-0.13,0.01-0.27,0.01-0.32-0.14c-0.04-0.12-0.07-0.24-0.06-0.36
		c0.02-0.44,0.27-0.72,0.66-0.88c0.13-0.05,0.23-0.04,0.33,0.09c0.09,0.12,0.21,0.23,0.34,0.31c0.05,0.03,0.18,0,0.23-0.04
		c0.1-0.09,0.22-0.09,0.29-0.01c0.04,0.05,0.02,0.17,0,0.26C47.4,44.34,47.15,44.42,46.89,44.49z M46.21,44.3
		c0.04,0.02,0.07,0.04,0.11,0.06c0.05-0.06,0.09-0.13,0.14-0.19c-0.06-0.03-0.11-0.06-0.17-0.08C46.26,44.16,46.23,44.23,46.21,44.3
		z"/>
	<path class="st1" d="M54.38,43.04c-0.32,0.17-0.46,0.12-0.58-0.21c-0.02-0.06-0.04-0.12-0.06-0.18c-0.12-0.33-0.27-0.41-0.61-0.28
		c-0.14,0.06-0.28,0.09-0.39-0.03c-0.06-0.06-0.14-0.14-0.15-0.22c0-0.06,0.08-0.14,0.15-0.2c0.05-0.04,0.13-0.06,0.19-0.08
		c0.29-0.08,0.49-0.29,0.72-0.47c0.23-0.18,0.53-0.12,0.64,0.15c0.12,0.29,0.12,0.57,0.06,0.87C54.31,42.6,54.37,42.82,54.38,43.04z
		"/>
	<path class="st1" d="M47.77,42.1c0.03-0.01,0.08-0.02,0.12-0.04c0.1-0.04,0.18-0.07,0.24,0.07c0.05,0.12,0.02,0.2-0.08,0.28
		c-0.12,0.1-0.22,0.22-0.33,0.33c0.01,0.02,0.03,0.04,0.04,0.06c0.22-0.12,0.44-0.24,0.67-0.37c0.05,0.07,0.1,0.12,0.12,0.18
		c0.02,0.05,0.03,0.14,0,0.17c-0.2,0.19-0.41,0.37-0.63,0.54c-0.13,0.1-0.28,0.08-0.42-0.04c-0.19-0.16-0.38-0.32-0.57-0.47
		c-0.16-0.12-0.15-0.47,0.02-0.59c0.15-0.11,0.36-0.2,0.43-0.35c0.1-0.19,0.27-0.18,0.4-0.25c0.04-0.02,0.12-0.01,0.14,0.01
		c0.03,0.05,0.06,0.13,0.04,0.17C47.91,41.9,47.84,42,47.77,42.1z"/>
	<path class="st1" d="M52.54,41.05c-0.15,0.01-0.3,0.04-0.45,0.02c-0.17-0.02-0.29,0-0.31,0.2c-0.02,0.18-0.04,0.37-0.08,0.55
		c-0.02,0.06-0.11,0.14-0.17,0.15c-0.09,0.02-0.21,0.01-0.28-0.03c-0.04-0.03-0.03-0.15-0.04-0.24c-0.01-0.22,0.11-0.46-0.03-0.67
		c-0.04-0.05-0.13-0.08-0.2-0.09c-0.1-0.01-0.2,0.01-0.3,0.01c-0.15,0.01-0.16-0.09-0.14-0.19c0.06-0.25,0.07-0.25,0.45-0.21
		c0.33,0.03,0.65,0.04,0.98,0.08c0.14,0.02,0.28,0.05,0.41,0.11c0.08,0.04,0.12,0.14,0.18,0.21C52.56,40.98,52.55,41.02,52.54,41.05
		z"/>
	<path class="st1" d="M48.92,41.66c-0.05-0.14-0.12-0.28-0.15-0.42c-0.02-0.09,0.01-0.22,0.07-0.29c0.03-0.04,0.17-0.03,0.25,0
		c0.22,0.09,0.34,0.33,0.31,0.55c-0.02,0.16,0.15,0.31,0.31,0.25c0.13-0.05,0.26-0.12,0.4-0.03c0.05,0.03,0.13,0.06,0.13,0.09
		c-0.01,0.07-0.03,0.19-0.07,0.21c-0.27,0.12-0.55,0.22-0.83,0.3c-0.05,0.01-0.17-0.11-0.22-0.2
		C49.02,41.98,48.98,41.81,48.92,41.66C48.92,41.66,48.92,41.66,48.92,41.66z"/>
	<path class="st1" d="M55.96,56.11c-0.04-0.12-0.08-0.22-0.13-0.35c0.12-0.04,0.23-0.09,0.34-0.13
		C56.36,55.89,56.29,56.05,55.96,56.11z"/>
	<path class="st1" d="M55.65,55.31c0.18-0.01,0.31-0.03,0.42,0c0.05,0.01-0.07,0.24-0.17,0.27C55.7,55.65,55.73,55.48,55.65,55.31z"
		/>
	<path class="st1" d="M53.61,56.14c0,0.14,0,0.25-0.01,0.35c0,0.02-0.09,0.05-0.11,0.03c-0.08-0.07-0.14-0.15-0.23-0.25
		C53.4,56.22,53.47,56.19,53.61,56.14z"/>
</g>
</svg>
